<svg xmlns="http://www.w3.org/2000/svg" xmlns:xlink="http://www.w3.org/1999/xlink" width="500" zoomAndPan="magnify" viewBox="0 0 375 374.999991" height="500" preserveAspectRatio="xMidYMid meet" version="1.0"><defs><clipPath id="81e5408a12"><path d="M 103.941406 82.078125 L 234.441406 82.078125 L 234.441406 212.578125 L 103.941406 212.578125 Z M 103.941406 82.078125 " clip-rule="nonzero"/></clipPath><clipPath id="fc14e745fc"><path d="M 123.527344 76 L 187 76 L 187 151 L 123.527344 151 Z M 123.527344 76 " clip-rule="nonzero"/></clipPath><clipPath id="b40a07f74c"><path d="M 123.527344 114 L 217 114 L 217 218 L 123.527344 218 Z M 123.527344 114 " clip-rule="nonzero"/></clipPath></defs><g clip-path="url(#81e5408a12)"><path fill="#4ddde0" d="M 169.191406 212.578125 C 133.226562 212.578125 103.941406 183.292969 103.941406 147.328125 C 103.941406 111.359375 133.226562 82.078125 169.191406 82.078125 C 205.160156 82.078125 234.441406 111.359375 234.441406 147.328125 C 234.441406 183.292969 205.160156 212.578125 169.191406 212.578125 Z M 169.191406 83.039062 C 133.738281 83.039062 104.90625 111.875 104.90625 147.328125 C 104.90625 182.78125 133.738281 211.613281 169.191406 211.613281 C 204.644531 211.613281 233.480469 182.78125 233.480469 147.328125 C 233.480469 111.875 204.644531 83.039062 169.191406 83.039062 Z M 169.191406 83.039062 " fill-opacity="1" fill-rule="nonzero"/></g><path fill="#2e5da1" d="M 175.539062 147.238281 C 173.605469 147.246094 172.046875 148.816406 172.058594 150.746094 C 172.070312 152.675781 173.644531 154.226562 175.574219 154.21875 C 177.503906 154.207031 179.0625 152.636719 179.054688 150.710938 C 179.042969 148.78125 177.46875 147.226562 175.539062 147.238281 " fill-opacity="1" fill-rule="nonzero"/><path fill="#2e5da1" d="M 193.433594 147.96875 C 193.414062 147.828125 193.394531 147.679688 193.375 147.53125 C 193.355469 147.382812 193.335938 147.226562 193.3125 147.070312 C 193.28125 146.914062 193.25 146.753906 193.21875 146.589844 C 193.097656 145.933594 192.902344 145.238281 192.671875 144.507812 C 192.605469 144.328125 192.539062 144.148438 192.472656 143.960938 C 192.4375 143.871094 192.402344 143.777344 192.371094 143.683594 C 192.332031 143.59375 192.292969 143.5 192.253906 143.40625 C 192.175781 143.222656 192.097656 143.035156 192.011719 142.847656 C 191.921875 142.664062 191.832031 142.476562 191.742188 142.289062 C 191.652344 142.097656 191.546875 141.917969 191.445312 141.730469 C 191.339844 141.542969 191.242188 141.355469 191.125 141.171875 C 191.011719 140.988281 190.898438 140.804688 190.785156 140.617188 C 190.660156 140.4375 190.535156 140.261719 190.410156 140.078125 C 190.289062 139.894531 190.148438 139.722656 190.015625 139.546875 C 189.878906 139.371094 189.75 139.191406 189.601562 139.023438 C 189.457031 138.855469 189.3125 138.683594 189.164062 138.515625 C 189.011719 138.351562 188.859375 138.1875 188.707031 138.023438 L 188.589844 137.902344 L 188.46875 137.789062 L 188.226562 137.554688 L 187.988281 137.324219 C 187.902344 137.246094 187.820312 137.175781 187.734375 137.101562 C 187.652344 137.027344 187.566406 136.953125 187.484375 136.882812 C 187.398438 136.808594 187.316406 136.734375 187.226562 136.667969 C 187.054688 136.53125 186.882812 136.394531 186.707031 136.257812 C 186.625 136.1875 186.53125 136.128906 186.441406 136.0625 C 186.351562 136 186.261719 135.9375 186.175781 135.871094 C 186.085938 135.808594 185.996094 135.746094 185.90625 135.6875 C 185.816406 135.625 185.722656 135.570312 185.632812 135.511719 C 185.542969 135.453125 185.453125 135.394531 185.359375 135.335938 C 185.269531 135.28125 185.179688 135.222656 185.089844 135.171875 C 184.902344 135.066406 184.71875 134.960938 184.535156 134.859375 C 184.445312 134.804688 184.351562 134.761719 184.261719 134.714844 C 184.167969 134.667969 184.074219 134.617188 183.984375 134.574219 C 183.890625 134.527344 183.800781 134.480469 183.707031 134.433594 C 183.617188 134.390625 183.523438 134.351562 183.433594 134.3125 C 183.246094 134.230469 183.066406 134.148438 182.886719 134.070312 C 182.703125 133.996094 182.519531 133.929688 182.339844 133.863281 C 182.25 133.828125 182.164062 133.796875 182.074219 133.761719 C 181.984375 133.730469 181.894531 133.703125 181.808594 133.671875 C 181.628906 133.617188 181.457031 133.558594 181.285156 133.503906 C 181.199219 133.476562 181.113281 133.457031 181.027344 133.433594 C 180.941406 133.410156 180.855469 133.386719 180.773438 133.367188 C 180.6875 133.34375 180.605469 133.320312 180.523438 133.300781 C 180.441406 133.277344 180.359375 133.253906 180.277344 133.238281 C 180.117188 133.203125 179.957031 133.171875 179.800781 133.140625 C 179.644531 133.109375 179.492188 133.070312 179.339844 133.050781 C 179.191406 133.03125 179.046875 133.007812 178.902344 132.988281 C 178.832031 132.976562 178.761719 132.96875 178.695312 132.957031 C 178.660156 132.949219 178.625 132.945312 178.589844 132.941406 C 178.558594 132.9375 178.523438 132.933594 178.488281 132.929688 C 178.222656 132.902344 177.96875 132.878906 177.738281 132.859375 C 177.503906 132.84375 177.289062 132.839844 177.097656 132.832031 C 177 132.828125 176.910156 132.824219 176.824219 132.820312 C 176.738281 132.820312 176.660156 132.824219 176.582031 132.824219 C 176.433594 132.824219 176.304688 132.828125 176.203125 132.832031 C 175.996094 132.835938 175.886719 132.839844 175.886719 132.839844 C 175.886719 132.839844 175.996094 132.851562 176.203125 132.875 C 176.304688 132.886719 176.429688 132.898438 176.578125 132.914062 C 176.652344 132.921875 176.730469 132.929688 176.816406 132.941406 C 176.902344 132.953125 176.992188 132.964844 177.085938 132.980469 C 177.273438 133.007812 177.484375 133.035156 177.710938 133.074219 C 177.9375 133.121094 178.183594 133.164062 178.441406 133.214844 C 178.476562 133.222656 178.507812 133.226562 178.542969 133.234375 C 178.574219 133.242188 178.609375 133.25 178.640625 133.257812 C 178.707031 133.273438 178.773438 133.289062 178.84375 133.304688 C 178.980469 133.339844 179.121094 133.371094 179.265625 133.40625 C 179.410156 133.4375 179.554688 133.484375 179.707031 133.527344 C 179.855469 133.570312 180.007812 133.613281 180.164062 133.660156 C 180.320312 133.707031 180.476562 133.761719 180.636719 133.816406 C 180.71875 133.84375 180.800781 133.867188 180.878906 133.894531 C 180.960938 133.921875 181.046875 133.949219 181.125 133.984375 C 181.289062 134.046875 181.453125 134.109375 181.625 134.175781 C 181.707031 134.207031 181.792969 134.238281 181.878906 134.273438 C 181.960938 134.3125 182.046875 134.347656 182.128906 134.386719 C 182.300781 134.460938 182.472656 134.535156 182.644531 134.613281 C 182.816406 134.699219 182.988281 134.78125 183.164062 134.871094 C 183.25 134.914062 183.339844 134.953125 183.425781 135 C 183.511719 135.046875 183.597656 135.097656 183.683594 135.144531 C 183.773438 135.191406 183.859375 135.238281 183.945312 135.285156 C 184.035156 135.335938 184.125 135.382812 184.207031 135.4375 C 184.90625 135.84375 185.589844 136.320312 186.261719 136.832031 C 186.425781 136.96875 186.589844 137.101562 186.757812 137.234375 C 186.839844 137.300781 186.917969 137.375 187 137.445312 C 187.078125 137.515625 187.160156 137.585938 187.238281 137.65625 C 187.320312 137.726562 187.398438 137.796875 187.480469 137.871094 L 187.941406 138.316406 L 188.054688 138.429688 L 188.167969 138.546875 C 188.3125 138.703125 188.460938 138.859375 188.609375 139.015625 C 188.75 139.175781 188.890625 139.339844 189.027344 139.5 C 189.171875 139.660156 189.300781 139.832031 189.433594 139.996094 C 189.5625 140.164062 189.699219 140.328125 189.820312 140.503906 C 190.328125 141.179688 190.757812 141.894531 191.152344 142.597656 C 191.246094 142.777344 191.339844 142.949219 191.433594 143.125 C 191.519531 143.304688 191.601562 143.480469 191.6875 143.65625 C 191.730469 143.746094 191.769531 143.832031 191.8125 143.917969 C 191.847656 144.007812 191.886719 144.09375 191.921875 144.183594 C 191.996094 144.359375 192.070312 144.53125 192.140625 144.703125 C 192.402344 145.394531 192.632812 146.058594 192.796875 146.6875 C 192.839844 146.84375 192.878906 147 192.921875 147.148438 C 192.953125 147.300781 192.988281 147.449219 193.019531 147.59375 C 193.054688 147.738281 193.082031 147.878906 193.117188 148.015625 C 193.140625 148.15625 193.164062 148.289062 193.183594 148.421875 C 193.207031 148.550781 193.230469 148.679688 193.25 148.800781 C 193.261719 148.859375 193.273438 148.921875 193.277344 148.980469 C 193.285156 149.039062 193.292969 149.097656 193.300781 149.152344 C 193.332031 149.382812 193.359375 149.589844 193.382812 149.78125 C 193.414062 150.164062 193.445312 150.464844 193.460938 150.667969 C 193.472656 150.871094 193.480469 150.980469 193.480469 150.980469 C 193.480469 150.980469 193.484375 150.957031 193.488281 150.902344 C 193.492188 150.847656 193.5 150.769531 193.503906 150.667969 C 193.511719 150.460938 193.523438 150.160156 193.53125 149.777344 C 193.519531 149.390625 193.527344 148.917969 193.46875 148.382812 C 193.457031 148.25 193.445312 148.113281 193.433594 147.96875 " fill-opacity="1" fill-rule="nonzero"/><path fill="#2e5da1" d="M 174.667969 168.523438 C 174.476562 168.5 174.265625 168.46875 174.039062 168.441406 C 173.984375 168.433594 173.925781 168.425781 173.863281 168.421875 C 173.804688 168.414062 173.746094 168.402344 173.683594 168.394531 C 173.5625 168.371094 173.433594 168.351562 173.304688 168.328125 C 173.171875 168.308594 173.039062 168.285156 172.898438 168.261719 C 172.761719 168.230469 172.621094 168.199219 172.476562 168.164062 C 172.328125 168.136719 172.183594 168.101562 172.027344 168.070312 C 171.878906 168.027344 171.726562 167.988281 171.566406 167.945312 C 170.9375 167.785156 170.269531 167.558594 169.574219 167.296875 C 169.402344 167.226562 169.230469 167.15625 169.054688 167.082031 C 168.964844 167.046875 168.878906 167.007812 168.789062 166.972656 C 168.703125 166.929688 168.613281 166.890625 168.527344 166.847656 C 168.351562 166.765625 168.171875 166.683594 167.992188 166.597656 C 167.816406 166.503906 167.640625 166.410156 167.460938 166.316406 C 166.753906 165.925781 166.039062 165.5 165.359375 164.996094 C 165.183594 164.875 165.019531 164.742188 164.851562 164.609375 C 164.683594 164.480469 164.511719 164.351562 164.351562 164.210938 C 164.191406 164.070312 164.027344 163.933594 163.863281 163.792969 C 163.707031 163.644531 163.550781 163.5 163.394531 163.351562 L 163.277344 163.242188 L 163.164062 163.128906 L 162.9375 162.898438 L 162.714844 162.667969 C 162.640625 162.589844 162.570312 162.507812 162.5 162.429688 C 162.429688 162.351562 162.355469 162.269531 162.285156 162.191406 C 162.214844 162.109375 162.140625 162.035156 162.074219 161.949219 C 161.941406 161.785156 161.804688 161.621094 161.671875 161.457031 C 161.15625 160.789062 160.675781 160.105469 160.265625 159.410156 C 160.210938 159.328125 160.164062 159.238281 160.113281 159.152344 C 160.066406 159.0625 160.019531 158.976562 159.96875 158.890625 C 159.921875 158.804688 159.875 158.71875 159.824219 158.632812 C 159.777344 158.546875 159.738281 158.457031 159.691406 158.371094 C 159.605469 158.199219 159.519531 158.027344 159.433594 157.855469 C 159.355469 157.683594 159.28125 157.511719 159.203125 157.34375 C 159.167969 157.257812 159.128906 157.171875 159.09375 157.089844 C 159.054688 157.003906 159.027344 156.917969 158.992188 156.835938 C 158.925781 156.667969 158.859375 156.503906 158.796875 156.339844 C 158.761719 156.261719 158.738281 156.175781 158.710938 156.097656 C 158.683594 156.015625 158.65625 155.933594 158.628906 155.855469 C 158.574219 155.695312 158.515625 155.539062 158.46875 155.382812 C 158.425781 155.226562 158.378906 155.074219 158.335938 154.925781 C 158.296875 154.777344 158.246094 154.628906 158.214844 154.484375 C 158.179688 154.34375 158.144531 154.203125 158.113281 154.066406 C 158.09375 153.996094 158.078125 153.929688 158.0625 153.863281 C 158.054688 153.832031 158.046875 153.796875 158.039062 153.765625 C 158.03125 153.730469 158.023438 153.699219 158.019531 153.664062 C 157.96875 153.40625 157.921875 153.164062 157.875 152.9375 C 157.839844 152.710938 157.808594 152.5 157.78125 152.3125 C 157.765625 152.21875 157.75 152.128906 157.738281 152.042969 C 157.726562 151.957031 157.71875 151.878906 157.710938 151.804688 C 157.695312 151.65625 157.683594 151.53125 157.671875 151.429688 C 157.648438 151.222656 157.632812 151.117188 157.632812 151.117188 C 157.632812 151.117188 157.632812 151.226562 157.628906 151.433594 C 157.625 151.535156 157.625 151.660156 157.621094 151.8125 C 157.621094 151.886719 157.617188 151.964844 157.617188 152.050781 C 157.621094 152.136719 157.625 152.226562 157.628906 152.324219 C 157.640625 152.515625 157.644531 152.730469 157.660156 152.964844 C 157.679688 153.195312 157.707031 153.445312 157.734375 153.714844 C 157.738281 153.746094 157.742188 153.78125 157.746094 153.8125 C 157.75 153.847656 157.757812 153.882812 157.761719 153.917969 C 157.773438 153.984375 157.78125 154.054688 157.792969 154.125 C 157.816406 154.265625 157.835938 154.414062 157.859375 154.5625 C 157.878906 154.714844 157.917969 154.863281 157.949219 155.019531 C 157.980469 155.175781 158.015625 155.335938 158.050781 155.496094 C 158.066406 155.578125 158.089844 155.660156 158.113281 155.742188 C 158.132812 155.824219 158.15625 155.90625 158.179688 155.992188 C 158.199219 156.074219 158.222656 156.160156 158.246094 156.242188 C 158.269531 156.328125 158.289062 156.414062 158.320312 156.5 C 158.375 156.671875 158.433594 156.84375 158.488281 157.023438 C 158.519531 157.109375 158.546875 157.199219 158.578125 157.289062 C 158.613281 157.375 158.648438 157.464844 158.679688 157.554688 C 158.75 157.730469 158.816406 157.914062 158.890625 158.097656 C 158.972656 158.277344 159.050781 158.457031 159.132812 158.640625 C 159.175781 158.730469 159.214844 158.824219 159.257812 158.917969 C 159.304688 159.007812 159.351562 159.097656 159.398438 159.191406 C 159.445312 159.28125 159.492188 159.375 159.539062 159.464844 C 159.585938 159.558594 159.632812 159.652344 159.6875 159.742188 C 159.789062 159.921875 159.894531 160.105469 160 160.289062 C 160.054688 160.382812 160.109375 160.472656 160.167969 160.5625 C 160.226562 160.652344 160.285156 160.742188 160.34375 160.835938 C 160.402344 160.925781 160.460938 161.015625 160.519531 161.105469 C 160.582031 161.195312 160.644531 161.285156 160.707031 161.375 C 160.773438 161.460938 160.835938 161.550781 160.898438 161.640625 C 160.964844 161.726562 161.023438 161.820312 161.097656 161.90625 C 161.234375 162.078125 161.371094 162.25 161.507812 162.421875 C 161.574219 162.511719 161.648438 162.59375 161.722656 162.675781 C 161.796875 162.761719 161.871094 162.84375 161.945312 162.925781 C 162.019531 163.007812 162.09375 163.09375 162.167969 163.175781 L 162.402344 163.417969 L 162.632812 163.65625 L 162.75 163.777344 L 162.875 163.890625 C 163.039062 164.042969 163.203125 164.195312 163.367188 164.347656 C 163.535156 164.496094 163.707031 164.636719 163.878906 164.78125 C 164.042969 164.929688 164.222656 165.058594 164.402344 165.195312 C 164.578125 165.328125 164.75 165.464844 164.9375 165.585938 C 165.117188 165.710938 165.296875 165.835938 165.480469 165.957031 C 165.664062 166.070312 165.851562 166.183594 166.035156 166.296875 C 166.21875 166.414062 166.40625 166.507812 166.59375 166.613281 C 166.78125 166.714844 166.964844 166.820312 167.15625 166.90625 C 167.34375 166.996094 167.53125 167.085938 167.714844 167.175781 C 167.902344 167.261719 168.09375 167.335938 168.277344 167.414062 C 168.371094 167.453125 168.464844 167.492188 168.554688 167.527344 C 168.648438 167.5625 168.742188 167.597656 168.835938 167.632812 C 169.019531 167.699219 169.203125 167.765625 169.382812 167.828125 C 170.113281 168.058594 170.8125 168.25 171.46875 168.367188 C 171.632812 168.398438 171.792969 168.429688 171.949219 168.457031 C 172.109375 168.484375 172.261719 168.5 172.414062 168.519531 C 172.5625 168.539062 172.710938 168.558594 172.851562 168.578125 C 172.996094 168.589844 173.132812 168.601562 173.269531 168.613281 C 173.804688 168.667969 174.277344 168.65625 174.664062 168.671875 C 175.046875 168.660156 175.351562 168.644531 175.554688 168.640625 C 175.660156 168.632812 175.738281 168.625 175.792969 168.621094 C 175.84375 168.617188 175.871094 168.613281 175.871094 168.613281 C 175.871094 168.613281 175.761719 168.609375 175.558594 168.59375 C 175.351562 168.578125 175.050781 168.550781 174.667969 168.523438 " fill-opacity="1" fill-rule="nonzero"/><path fill="#2e5da1" d="M 175.609375 161.007812 C 169.917969 161.039062 165.285156 156.457031 165.253906 150.78125 C 165.226562 145.101562 169.8125 140.476562 175.503906 140.445312 C 181.191406 140.417969 185.828125 144.996094 185.859375 150.675781 C 185.886719 156.351562 181.296875 160.980469 175.609375 161.007812 Z M 175.535156 138.082031 C 172.152344 138.085938 168.972656 139.40625 166.582031 141.800781 C 164.191406 144.191406 162.878906 147.371094 162.886719 150.75 C 162.890625 154.125 164.214844 157.300781 166.613281 159.683594 C 169.007812 162.066406 172.191406 163.378906 175.578125 163.371094 C 178.960938 163.367188 182.140625 162.046875 184.53125 159.652344 C 186.921875 157.261719 188.230469 154.085938 188.226562 150.707031 C 188.222656 147.328125 186.898438 144.15625 184.5 141.773438 C 182.105469 139.386719 178.917969 138.078125 175.535156 138.082031 " fill-opacity="1" fill-rule="nonzero"/><path fill="#2e5da1" d="M 170.066406 144.996094 C 169.980469 145.082031 169.894531 145.171875 169.8125 145.265625 C 172.910156 142.414062 177.734375 142.476562 180.757812 145.460938 C 183.78125 148.449219 183.890625 153.261719 181.070312 156.382812 C 181.160156 156.296875 181.25 156.214844 181.335938 156.125 C 184.414062 153.019531 184.390625 148.011719 181.277344 144.9375 C 178.167969 141.863281 173.148438 141.890625 170.066406 144.996094 " fill-opacity="1" fill-rule="nonzero"/><path fill="#2e5da1" d="M 174.675781 178.105469 C 174.578125 178.097656 174.472656 178.089844 174.359375 178.082031 C 174.242188 178.070312 174.121094 178.058594 173.988281 178.046875 C 173.855469 178.035156 173.71875 178.019531 173.570312 178.003906 C 173.496094 178 173.421875 177.992188 173.34375 177.984375 C 173.265625 177.972656 173.1875 177.964844 173.105469 177.953125 C 172.941406 177.933594 172.773438 177.910156 172.59375 177.886719 C 172.417969 177.859375 172.234375 177.832031 172.046875 177.804688 C 171.855469 177.773438 171.660156 177.738281 171.457031 177.703125 C 171.253906 177.671875 171.046875 177.625 170.832031 177.585938 C 170.617188 177.542969 170.398438 177.492188 170.171875 177.441406 C 169.722656 177.339844 169.25 177.222656 168.765625 177.085938 C 168.519531 177.019531 168.273438 176.941406 168.023438 176.867188 C 167.898438 176.828125 167.773438 176.789062 167.644531 176.746094 C 167.515625 176.703125 167.386719 176.664062 167.261719 176.617188 C 167.003906 176.527344 166.742188 176.441406 166.480469 176.339844 C 166.347656 176.289062 166.214844 176.242188 166.082031 176.191406 C 165.949219 176.136719 165.816406 176.082031 165.683594 176.027344 C 165.550781 175.976562 165.414062 175.917969 165.28125 175.859375 C 165.148438 175.804688 165.011719 175.746094 164.875 175.683594 C 164.605469 175.5625 164.332031 175.441406 164.0625 175.304688 C 163.515625 175.042969 162.96875 174.753906 162.421875 174.441406 C 162.285156 174.363281 162.148438 174.285156 162.011719 174.207031 C 161.875 174.125 161.742188 174.042969 161.605469 173.960938 C 161.464844 173.878906 161.332031 173.792969 161.195312 173.707031 C 161.0625 173.617188 160.925781 173.535156 160.789062 173.445312 C 160.65625 173.355469 160.523438 173.265625 160.386719 173.171875 C 160.253906 173.082031 160.121094 172.984375 159.988281 172.890625 C 159.921875 172.84375 159.851562 172.796875 159.785156 172.75 C 159.722656 172.699219 159.65625 172.652344 159.589844 172.601562 C 159.457031 172.503906 159.324219 172.410156 159.195312 172.308594 C 158.148438 171.503906 157.136719 170.621094 156.203125 169.664062 C 155.730469 169.1875 155.28125 168.691406 154.851562 168.183594 C 154.632812 167.933594 154.425781 167.671875 154.214844 167.417969 C 154.011719 167.152344 153.808594 166.894531 153.613281 166.625 C 153.222656 166.097656 152.851562 165.558594 152.507812 165.011719 C 152.332031 164.742188 152.171875 164.464844 152.003906 164.191406 C 151.847656 163.914062 151.683594 163.640625 151.539062 163.363281 C 151.386719 163.089844 151.246094 162.8125 151.105469 162.535156 C 151.035156 162.398438 150.972656 162.257812 150.902344 162.121094 C 150.835938 161.984375 150.769531 161.847656 150.707031 161.710938 C 150.644531 161.574219 150.582031 161.4375 150.519531 161.300781 C 150.460938 161.164062 150.402344 161.027344 150.34375 160.890625 C 150.316406 160.824219 150.285156 160.753906 150.257812 160.6875 C 150.230469 160.621094 150.203125 160.550781 150.175781 160.484375 C 150.121094 160.347656 150.066406 160.210938 150.011719 160.078125 C 149.808594 159.539062 149.621094 159.011719 149.457031 158.492188 C 149.289062 157.976562 149.144531 157.472656 149.015625 156.984375 C 148.953125 156.738281 148.898438 156.5 148.839844 156.261719 C 148.789062 156.027344 148.738281 155.796875 148.6875 155.574219 C 148.644531 155.347656 148.601562 155.125 148.558594 154.914062 C 148.519531 154.695312 148.484375 154.488281 148.449219 154.285156 C 148.324219 153.472656 148.242188 152.761719 148.1875 152.171875 C 148.175781 152.023438 148.167969 151.882812 148.15625 151.753906 C 148.148438 151.621094 148.132812 151.496094 148.128906 151.382812 C 148.117188 151.152344 148.105469 150.957031 148.097656 150.796875 C 148.085938 150.480469 148.078125 150.3125 148.078125 150.3125 C 148.078125 150.3125 148.070312 150.480469 148.054688 150.796875 C 148.050781 150.957031 148.046875 151.152344 148.039062 151.386719 C 148.035156 151.617188 148.039062 151.882812 148.039062 152.179688 C 148.054688 152.773438 148.082031 153.496094 148.164062 154.324219 C 148.1875 154.53125 148.210938 154.742188 148.238281 154.960938 C 148.265625 155.179688 148.296875 155.40625 148.332031 155.636719 C 148.367188 155.867188 148.40625 156.101562 148.449219 156.34375 C 148.496094 156.585938 148.542969 156.832031 148.597656 157.082031 C 148.707031 157.582031 148.828125 158.105469 148.976562 158.636719 C 149.117188 159.171875 149.296875 159.714844 149.488281 160.273438 C 149.878906 161.378906 150.355469 162.535156 150.949219 163.675781 C 151.09375 163.960938 151.253906 164.246094 151.410156 164.53125 C 151.574219 164.8125 151.734375 165.101562 151.910156 165.382812 C 152.082031 165.667969 152.265625 165.945312 152.445312 166.226562 C 152.636719 166.503906 152.824219 166.785156 153.023438 167.054688 C 153.21875 167.332031 153.429688 167.601562 153.632812 167.871094 C 153.847656 168.136719 154.058594 168.40625 154.28125 168.664062 C 154.722656 169.1875 155.183594 169.699219 155.667969 170.1875 C 156.628906 171.167969 157.667969 172.074219 158.753906 172.886719 C 159.835938 173.699219 160.964844 174.414062 162.101562 175.023438 C 162.667969 175.328125 163.234375 175.613281 163.800781 175.863281 C 164.082031 175.992188 164.367188 176.105469 164.644531 176.226562 C 164.785156 176.28125 164.925781 176.335938 165.066406 176.390625 C 165.203125 176.445312 165.339844 176.5 165.480469 176.550781 C 165.621094 176.601562 165.757812 176.648438 165.894531 176.699219 C 166.03125 176.746094 166.167969 176.792969 166.300781 176.839844 C 166.574219 176.933594 166.84375 177.015625 167.109375 177.09375 C 167.242188 177.136719 167.375 177.171875 167.503906 177.207031 C 167.636719 177.242188 167.765625 177.277344 167.894531 177.3125 C 168.152344 177.378906 168.40625 177.445312 168.65625 177.503906 C 169.160156 177.617188 169.640625 177.71875 170.101562 177.796875 C 170.332031 177.832031 170.554688 177.871094 170.773438 177.902344 C 170.996094 177.929688 171.207031 177.964844 171.414062 177.984375 C 171.621094 178.007812 171.820312 178.035156 172.011719 178.054688 C 172.207031 178.070312 172.394531 178.085938 172.574219 178.101562 C 172.75 178.113281 172.925781 178.121094 173.089844 178.132812 C 173.171875 178.136719 173.25 178.140625 173.328125 178.148438 C 173.410156 178.148438 173.484375 178.152344 173.558594 178.15625 C 173.707031 178.160156 173.847656 178.164062 173.980469 178.167969 C 174.113281 178.171875 174.238281 178.167969 174.355469 178.171875 C 174.46875 178.171875 174.578125 178.171875 174.675781 178.171875 C 174.773438 178.171875 174.863281 178.167969 174.941406 178.164062 C 175.261719 178.15625 175.429688 178.152344 175.429688 178.152344 C 175.429688 178.152344 175.261719 178.144531 174.941406 178.125 C 174.863281 178.117188 174.773438 178.113281 174.675781 178.105469 " fill-opacity="1" fill-rule="nonzero"/><g clip-path="url(#fc14e745fc)"><path fill="#4ddde0" d="M 124.683594 148.011719 C 125.996094 146.476562 127.597656 145.203125 129.40625 144.269531 C 130.972656 135.300781 135.167969 126.980469 141.628906 120.167969 L 139.617188 118.453125 L 141.628906 120.167969 L 141.632812 120.164062 L 139.617188 118.453125 C 140.175781 117.796875 153.542969 102.382812 173.609375 101.472656 C 177.84375 101.28125 182.027344 101.738281 186.148438 102.839844 L 144.484375 78.832031 C 135.179688 73.472656 123.550781 80.171875 123.550781 90.890625 L 123.550781 150.136719 C 123.773438 149.359375 124.152344 148.632812 124.683594 148.011719 " fill-opacity="1" fill-rule="nonzero"/></g><path fill="#2e5da1" d="M 175.554688 174.972656 C 175.480469 174.96875 175.375 174.957031 175.234375 174.949219 C 175.09375 174.9375 174.921875 174.925781 174.71875 174.914062 C 174.617188 174.90625 174.507812 174.898438 174.390625 174.890625 C 174.277344 174.882812 174.152344 174.863281 174.023438 174.851562 C 173.765625 174.820312 173.476562 174.789062 173.167969 174.753906 C 172.855469 174.703125 172.519531 174.652344 172.160156 174.59375 C 171.449219 174.46875 170.648438 174.296875 169.789062 174.066406 C 169.574219 174.015625 169.359375 173.941406 169.136719 173.875 C 168.914062 173.804688 168.691406 173.738281 168.460938 173.667969 C 168.238281 173.585938 168.007812 173.503906 167.777344 173.421875 C 167.660156 173.378906 167.542969 173.335938 167.425781 173.292969 L 167.335938 173.261719 L 167.25 173.226562 C 167.191406 173.199219 167.132812 173.175781 167.074219 173.152344 C 166.839844 173.058594 166.601562 172.957031 166.359375 172.859375 C 166.238281 172.8125 166.121094 172.753906 166 172.695312 C 165.882812 172.640625 165.761719 172.585938 165.640625 172.527344 C 165.519531 172.472656 165.398438 172.414062 165.277344 172.359375 L 165.1875 172.316406 L 165.097656 172.265625 C 165.039062 172.234375 164.976562 172.203125 164.917969 172.171875 C 164.675781 172.046875 164.433594 171.917969 164.191406 171.789062 C 163.226562 171.242188 162.261719 170.628906 161.332031 169.9375 C 160.410156 169.238281 159.511719 168.46875 158.675781 167.644531 C 157.84375 166.8125 157.074219 165.921875 156.363281 165.003906 C 155.667969 164.074219 155.050781 163.113281 154.5 162.160156 C 154.371094 161.914062 154.242188 161.671875 154.113281 161.433594 C 154.082031 161.371094 154.050781 161.3125 154.019531 161.253906 C 153.988281 161.195312 153.953125 161.136719 153.925781 161.074219 C 153.867188 160.953125 153.8125 160.832031 153.753906 160.710938 C 153.695312 160.589844 153.640625 160.472656 153.582031 160.351562 C 153.554688 160.292969 153.527344 160.234375 153.5 160.175781 L 153.457031 160.085938 L 153.417969 159.996094 C 153.320312 159.757812 153.21875 159.519531 153.121094 159.285156 C 153.097656 159.226562 153.074219 159.167969 153.046875 159.109375 C 153.023438 159.054688 153 158.996094 152.980469 158.933594 C 152.9375 158.820312 152.894531 158.703125 152.851562 158.585938 C 152.765625 158.355469 152.683594 158.125 152.601562 157.902344 C 152.53125 157.671875 152.460938 157.449219 152.390625 157.230469 C 152.355469 157.121094 152.320312 157.007812 152.285156 156.902344 C 152.269531 156.847656 152.25 156.792969 152.238281 156.742188 C 152.222656 156.6875 152.210938 156.632812 152.195312 156.578125 C 151.960938 155.722656 151.785156 154.925781 151.65625 154.214844 C 151.597656 153.855469 151.542969 153.519531 151.492188 153.210938 C 151.457031 152.898438 151.421875 152.613281 151.390625 152.355469 C 151.378906 152.226562 151.359375 152.101562 151.351562 151.988281 C 151.34375 151.871094 151.332031 151.765625 151.328125 151.664062 C 151.3125 151.460938 151.300781 151.289062 151.289062 151.148438 C 151.277344 151.007812 151.269531 150.902344 151.265625 150.828125 C 151.257812 150.757812 151.257812 150.71875 151.257812 150.71875 C 151.257812 150.71875 151.253906 150.757812 151.253906 150.832031 C 151.25 150.902344 151.25 151.007812 151.246094 151.148438 C 151.242188 151.289062 151.242188 151.460938 151.234375 151.664062 C 151.234375 151.765625 151.230469 151.878906 151.230469 151.992188 C 151.230469 152.109375 151.238281 152.234375 151.242188 152.367188 C 151.253906 152.628906 151.265625 152.917969 151.277344 153.234375 C 151.300781 153.546875 151.335938 153.890625 151.371094 154.253906 C 151.382812 154.34375 151.386719 154.4375 151.402344 154.53125 C 151.414062 154.625 151.429688 154.71875 151.441406 154.816406 C 151.472656 155.011719 151.5 155.207031 151.53125 155.410156 C 151.546875 155.511719 151.558594 155.617188 151.578125 155.71875 C 151.601562 155.824219 151.621094 155.929688 151.644531 156.03125 C 151.6875 156.246094 151.730469 156.460938 151.777344 156.683594 C 151.789062 156.738281 151.800781 156.792969 151.8125 156.851562 C 151.824219 156.90625 151.839844 156.960938 151.851562 157.015625 C 151.882812 157.128906 151.910156 157.242188 151.941406 157.355469 C 152 157.582031 152.058594 157.816406 152.121094 158.050781 C 152.195312 158.285156 152.269531 158.519531 152.347656 158.761719 C 152.382812 158.882812 152.421875 159 152.460938 159.125 C 152.480469 159.1875 152.503906 159.246094 152.527344 159.304688 C 152.546875 159.367188 152.570312 159.425781 152.59375 159.488281 C 152.683594 159.730469 152.777344 159.976562 152.871094 160.226562 L 152.90625 160.320312 L 152.949219 160.410156 C 152.972656 160.472656 153 160.535156 153.027344 160.597656 C 153.082031 160.71875 153.136719 160.84375 153.191406 160.96875 C 153.246094 161.09375 153.300781 161.222656 153.355469 161.347656 C 153.382812 161.410156 153.414062 161.472656 153.445312 161.535156 C 153.476562 161.597656 153.507812 161.660156 153.535156 161.722656 C 153.660156 161.972656 153.789062 162.222656 153.914062 162.476562 C 154.054688 162.722656 154.191406 162.972656 154.335938 163.222656 C 154.371094 163.285156 154.40625 163.351562 154.441406 163.414062 L 154.496094 163.507812 C 154.511719 163.539062 154.535156 163.570312 154.550781 163.601562 C 154.628906 163.722656 154.707031 163.847656 154.785156 163.96875 C 154.863281 164.09375 154.941406 164.21875 155.019531 164.339844 C 155.058594 164.402344 155.101562 164.464844 155.140625 164.527344 C 155.183594 164.589844 155.222656 164.648438 155.265625 164.710938 C 155.4375 164.953125 155.609375 165.191406 155.78125 165.4375 C 156.496094 166.394531 157.289062 167.3125 158.144531 168.175781 C 159.011719 169.023438 159.9375 169.8125 160.898438 170.523438 C 161.144531 170.695312 161.386719 170.863281 161.628906 171.035156 C 161.691406 171.078125 161.75 171.117188 161.8125 171.160156 C 161.875 171.199219 161.9375 171.238281 162 171.277344 C 162.125 171.355469 162.25 171.433594 162.375 171.511719 C 162.496094 171.585938 162.621094 171.664062 162.746094 171.742188 C 162.804688 171.78125 162.871094 171.816406 162.933594 171.851562 C 162.996094 171.886719 163.058594 171.921875 163.121094 171.957031 C 163.375 172.097656 163.625 172.238281 163.875 172.375 C 164.128906 172.5 164.382812 172.625 164.632812 172.746094 C 164.695312 172.777344 164.757812 172.808594 164.820312 172.839844 L 164.914062 172.886719 C 164.941406 172.898438 164.976562 172.914062 165.007812 172.925781 C 165.132812 172.984375 165.261719 173.035156 165.386719 173.089844 C 165.511719 173.144531 165.636719 173.199219 165.761719 173.25 C 165.886719 173.304688 166.007812 173.359375 166.132812 173.40625 C 166.382812 173.496094 166.628906 173.589844 166.875 173.679688 C 166.933594 173.703125 166.996094 173.726562 167.054688 173.746094 L 167.148438 173.78125 L 167.238281 173.808594 C 167.359375 173.847656 167.484375 173.886719 167.601562 173.921875 C 167.84375 173.996094 168.082031 174.074219 168.316406 174.144531 C 168.550781 174.207031 168.785156 174.265625 169.011719 174.320312 C 169.242188 174.378906 169.464844 174.441406 169.6875 174.480469 C 169.910156 174.527344 170.125 174.570312 170.339844 174.613281 C 170.445312 174.636719 170.550781 174.65625 170.652344 174.679688 C 170.757812 174.695312 170.859375 174.707031 170.960938 174.722656 C 171.167969 174.753906 171.367188 174.78125 171.558594 174.808594 C 171.65625 174.824219 171.75 174.835938 171.84375 174.851562 C 171.9375 174.863281 172.03125 174.867188 172.121094 174.875 C 172.488281 174.910156 172.828125 174.945312 173.144531 174.96875 C 173.460938 174.980469 173.753906 174.988281 174.015625 175 C 174.148438 175 174.273438 175.011719 174.390625 175.007812 C 174.503906 175.007812 174.613281 175.003906 174.714844 175.003906 C 174.921875 175 175.09375 174.996094 175.234375 174.992188 C 175.375 174.988281 175.480469 174.984375 175.554688 174.980469 C 175.589844 174.980469 175.617188 174.980469 175.636719 174.980469 C 175.652344 174.980469 175.664062 174.976562 175.664062 174.976562 C 175.664062 174.976562 175.652344 174.976562 175.636719 174.976562 C 175.617188 174.976562 175.589844 174.972656 175.554688 174.972656 " fill-opacity="1" fill-rule="nonzero"/><path fill="#2e5da1" d="M 175.480469 171.785156 C 175.238281 171.769531 174.882812 171.742188 174.429688 171.707031 C 174.203125 171.679688 173.953125 171.648438 173.683594 171.617188 C 173.617188 171.609375 173.546875 171.601562 173.476562 171.59375 C 173.40625 171.582031 173.335938 171.570312 173.261719 171.558594 C 173.117188 171.535156 172.96875 171.511719 172.8125 171.484375 C 172.734375 171.472656 172.65625 171.460938 172.574219 171.445312 C 172.496094 171.433594 172.414062 171.421875 172.332031 171.402344 C 172.167969 171.367188 172 171.332031 171.828125 171.292969 C 171.742188 171.277344 171.65625 171.257812 171.566406 171.238281 C 171.476562 171.21875 171.386719 171.203125 171.300781 171.179688 C 171.121094 171.132812 170.9375 171.085938 170.75 171.039062 C 170.375 170.949219 169.992188 170.816406 169.597656 170.695312 C 169.398438 170.640625 169.199219 170.558594 169 170.488281 C 168.898438 170.453125 168.796875 170.417969 168.695312 170.378906 C 168.644531 170.359375 168.589844 170.34375 168.539062 170.324219 C 168.488281 170.304688 168.4375 170.289062 168.386719 170.265625 C 168.183594 170.179688 167.976562 170.09375 167.765625 170.007812 C 167.714844 169.988281 167.664062 169.964844 167.609375 169.945312 C 167.558594 169.921875 167.503906 169.902344 167.453125 169.875 C 167.351562 169.828125 167.246094 169.777344 167.140625 169.730469 C 167.039062 169.679688 166.933594 169.628906 166.828125 169.582031 C 166.722656 169.53125 166.613281 169.484375 166.511719 169.425781 C 166.300781 169.316406 166.089844 169.207031 165.878906 169.097656 C 165.824219 169.070312 165.773438 169.039062 165.71875 169.011719 C 165.667969 168.980469 165.617188 168.949219 165.5625 168.921875 C 165.460938 168.859375 165.355469 168.796875 165.25 168.738281 C 165.144531 168.675781 165.039062 168.613281 164.933594 168.550781 L 164.777344 168.457031 C 164.726562 168.421875 164.671875 168.386719 164.621094 168.355469 C 164.414062 168.21875 164.207031 168.085938 164 167.949219 C 163.796875 167.804688 163.59375 167.660156 163.386719 167.515625 L 163.234375 167.402344 C 163.183594 167.367188 163.136719 167.328125 163.085938 167.289062 C 162.984375 167.210938 162.886719 167.132812 162.789062 167.050781 C 162.6875 166.972656 162.589844 166.898438 162.488281 166.816406 C 162.390625 166.742188 162.296875 166.65625 162.199219 166.574219 C 162.101562 166.488281 162.003906 166.40625 161.910156 166.324219 L 161.765625 166.199219 L 161.691406 166.136719 L 161.621094 166.070312 C 161.4375 165.894531 161.25 165.722656 161.066406 165.546875 C 160.335938 164.832031 159.65625 164.070312 159.039062 163.277344 C 158.429688 162.476562 157.875 161.660156 157.390625 160.832031 L 157.304688 160.675781 C 157.273438 160.621094 157.246094 160.570312 157.21875 160.519531 C 157.160156 160.414062 157.105469 160.308594 157.050781 160.207031 C 156.992188 160.101562 156.9375 160 156.882812 159.898438 C 156.828125 159.792969 156.777344 159.6875 156.726562 159.585938 C 156.628906 159.378906 156.527344 159.171875 156.429688 158.96875 C 156.339844 158.761719 156.253906 158.558594 156.164062 158.355469 C 156.121094 158.253906 156.078125 158.152344 156.035156 158.054688 C 155.996094 157.953125 155.957031 157.851562 155.921875 157.753906 C 155.84375 157.550781 155.769531 157.355469 155.699219 157.160156 L 155.671875 157.089844 L 155.648438 157.015625 C 155.628906 156.964844 155.617188 156.917969 155.601562 156.867188 C 155.566406 156.769531 155.535156 156.675781 155.507812 156.578125 C 155.476562 156.484375 155.445312 156.390625 155.414062 156.296875 C 155.382812 156.203125 155.351562 156.109375 155.328125 156.019531 C 155.277344 155.832031 155.226562 155.648438 155.179688 155.472656 C 155.128906 155.292969 155.078125 155.121094 155.042969 154.949219 C 155.003906 154.777344 154.964844 154.609375 154.929688 154.449219 C 154.910156 154.367188 154.890625 154.285156 154.875 154.207031 C 154.867188 154.167969 154.855469 154.128906 154.847656 154.089844 C 154.839844 154.050781 154.835938 154.011719 154.828125 153.972656 C 154.773438 153.664062 154.722656 153.371094 154.671875 153.105469 C 154.632812 152.835938 154.605469 152.585938 154.574219 152.363281 C 154.558594 152.25 154.546875 152.144531 154.53125 152.042969 C 154.519531 151.945312 154.515625 151.847656 154.507812 151.761719 C 154.488281 151.585938 154.476562 151.4375 154.464844 151.316406 C 154.441406 151.074219 154.429688 150.941406 154.429688 150.941406 C 154.429688 150.941406 154.429688 151.074219 154.421875 151.316406 C 154.421875 151.4375 154.417969 151.589844 154.414062 151.765625 C 154.414062 151.855469 154.410156 151.949219 154.410156 152.050781 C 154.414062 152.152344 154.421875 152.261719 154.425781 152.375 C 154.433594 152.601562 154.441406 152.855469 154.457031 153.128906 C 154.480469 153.402344 154.511719 153.699219 154.542969 154.015625 C 154.546875 154.054688 154.550781 154.097656 154.554688 154.136719 C 154.558594 154.175781 154.566406 154.214844 154.574219 154.257812 C 154.585938 154.339844 154.597656 154.421875 154.609375 154.503906 C 154.636719 154.671875 154.660156 154.84375 154.6875 155.023438 C 154.710938 155.199219 154.753906 155.378906 154.789062 155.5625 C 154.828125 155.746094 154.867188 155.933594 154.90625 156.128906 C 154.925781 156.226562 154.953125 156.320312 154.976562 156.417969 C 155.003906 156.515625 155.027344 156.613281 155.054688 156.710938 C 155.082031 156.808594 155.109375 156.910156 155.132812 157.011719 C 155.148438 157.0625 155.160156 157.113281 155.175781 157.164062 L 155.195312 157.238281 L 155.21875 157.316406 C 155.285156 157.519531 155.351562 157.722656 155.417969 157.929688 C 155.449219 158.035156 155.484375 158.140625 155.519531 158.246094 C 155.558594 158.351562 155.597656 158.457031 155.640625 158.5625 C 155.71875 158.773438 155.800781 158.988281 155.882812 159.207031 C 155.976562 159.417969 156.070312 159.632812 156.167969 159.851562 C 156.214844 159.957031 156.261719 160.070312 156.3125 160.175781 C 156.367188 160.285156 156.421875 160.394531 156.476562 160.5 C 156.53125 160.609375 156.585938 160.71875 156.640625 160.828125 C 156.667969 160.882812 156.695312 160.9375 156.722656 160.992188 L 156.808594 161.15625 C 156.933594 161.371094 157.054688 161.585938 157.179688 161.804688 C 157.210938 161.859375 157.242188 161.914062 157.273438 161.96875 C 157.308594 162.023438 157.339844 162.074219 157.375 162.128906 C 157.441406 162.234375 157.511719 162.34375 157.578125 162.449219 C 157.648438 162.554688 157.714844 162.664062 157.785156 162.773438 C 157.816406 162.828125 157.855469 162.878906 157.894531 162.933594 L 158.003906 163.089844 C 158.15625 163.296875 158.300781 163.511719 158.457031 163.71875 C 159.085938 164.550781 159.789062 165.339844 160.539062 166.082031 C 160.734375 166.261719 160.925781 166.445312 161.117188 166.625 L 161.265625 166.757812 L 161.417969 166.882812 C 161.519531 166.972656 161.617188 167.054688 161.71875 167.140625 C 161.820312 167.226562 161.917969 167.3125 162.019531 167.394531 C 162.125 167.472656 162.230469 167.554688 162.332031 167.632812 C 162.4375 167.714844 162.539062 167.792969 162.644531 167.871094 C 162.695312 167.910156 162.746094 167.953125 162.800781 167.992188 L 162.960938 168.101562 C 163.175781 168.25 163.386719 168.398438 163.597656 168.542969 C 163.816406 168.683594 164.035156 168.816406 164.253906 168.949219 C 164.304688 168.984375 164.359375 169.015625 164.414062 169.050781 L 164.496094 169.101562 L 164.578125 169.148438 C 164.6875 169.207031 164.800781 169.269531 164.910156 169.328125 C 165.019531 169.390625 165.128906 169.453125 165.238281 169.511719 C 165.292969 169.542969 165.347656 169.570312 165.402344 169.601562 C 165.457031 169.628906 165.511719 169.65625 165.570312 169.683594 C 165.792969 169.792969 166.011719 169.898438 166.230469 170.003906 C 166.339844 170.0625 166.449219 170.105469 166.5625 170.152344 C 166.671875 170.199219 166.78125 170.246094 166.890625 170.292969 C 167 170.339844 167.109375 170.386719 167.21875 170.433594 C 167.273438 170.457031 167.328125 170.476562 167.382812 170.496094 C 167.4375 170.515625 167.492188 170.535156 167.546875 170.558594 C 167.765625 170.636719 167.980469 170.714844 168.191406 170.792969 C 168.246094 170.8125 168.300781 170.832031 168.351562 170.847656 C 168.40625 170.863281 168.460938 170.878906 168.515625 170.898438 C 168.621094 170.929688 168.726562 170.960938 168.832031 170.992188 C 169.042969 171.058594 169.246094 171.128906 169.453125 171.175781 C 169.867188 171.277344 170.261719 171.386719 170.652344 171.457031 C 170.84375 171.492188 171.035156 171.53125 171.21875 171.566406 C 171.3125 171.585938 171.402344 171.597656 171.496094 171.613281 C 171.585938 171.625 171.675781 171.636719 171.765625 171.648438 C 171.941406 171.675781 172.113281 171.699219 172.28125 171.722656 C 172.367188 171.734375 172.449219 171.738281 172.53125 171.746094 C 172.613281 171.753906 172.695312 171.761719 172.773438 171.769531 C 172.933594 171.78125 173.085938 171.796875 173.234375 171.808594 C 173.308594 171.8125 173.382812 171.824219 173.453125 171.824219 C 173.527344 171.828125 173.597656 171.832031 173.664062 171.832031 C 173.941406 171.839844 174.195312 171.847656 174.421875 171.851562 C 174.652344 171.859375 174.855469 171.847656 175.03125 171.84375 C 175.207031 171.835938 175.359375 171.835938 175.480469 171.832031 C 175.601562 171.828125 175.699219 171.820312 175.757812 171.816406 C 175.824219 171.8125 175.855469 171.808594 175.855469 171.808594 C 175.855469 171.808594 175.824219 171.808594 175.757812 171.804688 C 175.695312 171.800781 175.605469 171.796875 175.480469 171.785156 " fill-opacity="1" fill-rule="nonzero"/><path fill="#2e5da1" d="M 199.839844 148.242188 C 199.816406 147.921875 199.777344 147.585938 199.742188 147.21875 C 199.734375 147.128906 199.726562 147.035156 199.714844 146.941406 C 199.699219 146.847656 199.6875 146.753906 199.671875 146.65625 C 199.644531 146.464844 199.613281 146.265625 199.585938 146.0625 C 199.570312 145.960938 199.554688 145.855469 199.539062 145.753906 C 199.515625 145.648438 199.496094 145.546875 199.472656 145.441406 C 199.429688 145.226562 199.386719 145.011719 199.339844 144.792969 C 199.300781 144.570312 199.234375 144.34375 199.175781 144.117188 C 199.117188 143.890625 199.058594 143.660156 198.996094 143.421875 C 198.925781 143.1875 198.847656 142.953125 198.773438 142.710938 C 198.734375 142.59375 198.695312 142.472656 198.65625 142.347656 L 198.628906 142.257812 L 198.59375 142.167969 C 198.570312 142.105469 198.550781 142.046875 198.527344 141.984375 C 198.433594 141.742188 198.339844 141.496094 198.246094 141.246094 C 198.203125 141.121094 198.144531 141 198.09375 140.875 C 198.039062 140.753906 197.984375 140.628906 197.929688 140.503906 C 197.875 140.375 197.820312 140.25 197.765625 140.125 C 197.753906 140.09375 197.738281 140.0625 197.722656 140.03125 L 197.675781 139.9375 C 197.648438 139.875 197.617188 139.8125 197.585938 139.75 C 197.460938 139.5 197.335938 139.25 197.207031 138.996094 C 197.070312 138.746094 196.929688 138.496094 196.789062 138.246094 C 196.753906 138.183594 196.714844 138.121094 196.679688 138.058594 C 196.644531 137.996094 196.609375 137.929688 196.570312 137.871094 C 196.492188 137.75 196.417969 137.625 196.335938 137.5 C 196.257812 137.378906 196.179688 137.253906 196.101562 137.128906 C 196.0625 137.066406 196.023438 137.003906 195.984375 136.941406 C 195.941406 136.882812 195.898438 136.820312 195.859375 136.761719 C 195.6875 136.519531 195.515625 136.277344 195.34375 136.03125 C 194.628906 135.074219 193.835938 134.15625 192.984375 133.292969 C 192.117188 132.441406 191.191406 131.652344 190.230469 130.941406 C 189.988281 130.769531 189.742188 130.601562 189.5 130.429688 C 189.4375 130.390625 189.378906 130.347656 189.316406 130.304688 C 189.253906 130.265625 189.191406 130.226562 189.128906 130.1875 C 189.003906 130.109375 188.878906 130.03125 188.757812 129.953125 C 188.632812 129.875 188.507812 129.800781 188.386719 129.722656 C 188.355469 129.703125 188.324219 129.683594 188.292969 129.664062 L 188.199219 129.613281 C 188.136719 129.578125 188.074219 129.539062 188.007812 129.503906 C 187.757812 129.367188 187.507812 129.226562 187.257812 129.089844 C 187.003906 128.960938 186.75 128.835938 186.5 128.714844 C 186.4375 128.683594 186.375 128.652344 186.3125 128.621094 C 186.25 128.59375 186.1875 128.558594 186.125 128.535156 C 186 128.480469 185.871094 128.425781 185.746094 128.371094 C 185.621094 128.316406 185.496094 128.265625 185.371094 128.210938 C 185.308594 128.183594 185.246094 128.15625 185.1875 128.128906 L 185.09375 128.089844 L 185 128.054688 C 184.75 127.960938 184.503906 127.871094 184.257812 127.78125 C 184.199219 127.757812 184.136719 127.734375 184.074219 127.714844 C 184.015625 127.691406 183.957031 127.667969 183.894531 127.648438 C 183.773438 127.613281 183.648438 127.574219 183.53125 127.535156 C 183.289062 127.460938 183.050781 127.386719 182.816406 127.3125 C 182.582031 127.253906 182.347656 127.195312 182.121094 127.136719 C 182.003906 127.105469 181.890625 127.078125 181.78125 127.050781 C 181.722656 127.035156 181.667969 127.019531 181.613281 127.007812 C 181.558594 126.996094 181.5 126.984375 181.445312 126.976562 C 181.222656 126.929688 181.007812 126.886719 180.792969 126.84375 C 180.6875 126.820312 180.582031 126.800781 180.480469 126.78125 C 180.375 126.761719 180.273438 126.75 180.171875 126.734375 C 179.964844 126.703125 179.769531 126.675781 179.574219 126.648438 C 179.476562 126.632812 179.382812 126.621094 179.289062 126.605469 C 179.195312 126.59375 179.101562 126.589844 179.011719 126.578125 C 178.644531 126.546875 178.304688 126.511719 177.988281 126.484375 C 177.671875 126.476562 177.378906 126.464844 177.117188 126.457031 C 176.984375 126.453125 176.863281 126.445312 176.746094 126.445312 C 176.628906 126.445312 176.519531 126.449219 176.417969 126.453125 C 176.214844 126.457031 176.039062 126.460938 175.898438 126.464844 C 175.757812 126.46875 175.652344 126.46875 175.578125 126.472656 C 175.507812 126.472656 175.46875 126.476562 175.46875 126.476562 C 175.46875 126.476562 175.507812 126.476562 175.578125 126.484375 C 175.652344 126.488281 175.757812 126.496094 175.898438 126.503906 C 176.039062 126.515625 176.210938 126.527344 176.414062 126.542969 C 176.515625 126.546875 176.625 126.554688 176.738281 126.5625 C 176.855469 126.574219 176.976562 126.589844 177.109375 126.605469 C 177.367188 126.632812 177.652344 126.667969 177.964844 126.703125 C 178.277344 126.753906 178.613281 126.804688 178.972656 126.863281 C 179.683594 126.988281 180.484375 127.164062 181.34375 127.394531 C 181.394531 127.40625 181.449219 127.421875 181.503906 127.433594 C 181.558594 127.449219 181.613281 127.46875 181.667969 127.484375 C 181.773438 127.515625 181.882812 127.550781 181.996094 127.585938 C 182.214844 127.652344 182.441406 127.722656 182.667969 127.792969 C 182.894531 127.875 183.125 127.957031 183.355469 128.039062 C 183.472656 128.082031 183.589844 128.125 183.707031 128.167969 C 183.765625 128.1875 183.824219 128.210938 183.882812 128.234375 C 183.941406 128.261719 184 128.285156 184.058594 128.308594 C 184.292969 128.40625 184.53125 128.503906 184.773438 128.601562 L 184.863281 128.640625 L 184.949219 128.683594 C 185.011719 128.710938 185.070312 128.738281 185.128906 128.765625 C 185.25 128.820312 185.367188 128.878906 185.488281 128.933594 C 185.609375 128.992188 185.730469 129.046875 185.851562 129.105469 C 185.914062 129.132812 185.972656 129.164062 186.03125 129.195312 C 186.09375 129.226562 186.152344 129.257812 186.214844 129.292969 C 186.453125 129.417969 186.695312 129.542969 186.941406 129.671875 C 187.902344 130.222656 188.863281 130.835938 189.796875 131.527344 C 190.71875 132.230469 191.613281 132.996094 192.453125 133.824219 C 193.285156 134.65625 194.054688 135.546875 194.757812 136.464844 C 195.457031 137.394531 196.070312 138.355469 196.625 139.3125 C 196.753906 139.554688 196.882812 139.796875 197.007812 140.039062 C 197.042969 140.097656 197.074219 140.15625 197.105469 140.214844 L 197.152344 140.304688 L 197.195312 140.398438 C 197.253906 140.519531 197.3125 140.640625 197.367188 140.757812 C 197.425781 140.878906 197.480469 141 197.539062 141.117188 C 197.59375 141.238281 197.65625 141.355469 197.703125 141.476562 C 197.804688 141.714844 197.902344 141.953125 198 142.183594 C 198.023438 142.246094 198.046875 142.300781 198.074219 142.359375 L 198.109375 142.449219 L 198.140625 142.535156 C 198.183594 142.652344 198.226562 142.769531 198.269531 142.886719 C 198.355469 143.117188 198.4375 143.347656 198.519531 143.570312 C 198.589844 143.800781 198.660156 144.023438 198.730469 144.242188 C 198.796875 144.464844 198.871094 144.679688 198.921875 144.894531 C 199.15625 145.75 199.332031 146.546875 199.460938 147.257812 C 199.515625 147.617188 199.570312 147.953125 199.621094 148.261719 C 199.660156 148.574219 199.691406 148.859375 199.722656 149.117188 C 199.738281 149.246094 199.753906 149.367188 199.761719 149.484375 C 199.773438 149.601562 199.78125 149.710938 199.789062 149.808594 C 199.800781 150.011719 199.816406 150.183594 199.824219 150.324219 C 199.835938 150.464844 199.84375 150.574219 199.847656 150.644531 C 199.851562 150.679688 199.855469 150.707031 199.855469 150.726562 C 199.855469 150.746094 199.855469 150.753906 199.855469 150.753906 C 199.855469 150.753906 199.855469 150.746094 199.859375 150.726562 C 199.859375 150.707031 199.859375 150.679688 199.859375 150.644531 C 199.863281 150.570312 199.863281 150.464844 199.867188 150.324219 C 199.871094 150.183594 199.871094 150.011719 199.878906 149.808594 C 199.878906 149.707031 199.882812 149.597656 199.882812 149.480469 C 199.882812 149.363281 199.875 149.242188 199.871094 149.109375 C 199.859375 148.847656 199.851562 148.558594 199.839844 148.242188 " fill-opacity="1" fill-rule="nonzero"/><g clip-path="url(#b40a07f74c)"><path fill="#2e5da1" d="M 211.925781 172.046875 C 211.230469 172.050781 210.660156 171.488281 210.65625 170.792969 L 210.53125 146.890625 C 210.527344 146.191406 211.089844 145.621094 211.789062 145.617188 C 212.488281 145.617188 213.058594 146.179688 213.0625 146.875 L 213.1875 170.777344 C 213.191406 171.476562 212.625 172.042969 211.925781 172.046875 Z M 195.425781 155.050781 C 195.785156 154.6875 196.371094 154.683594 196.738281 155.042969 C 197.097656 155.402344 197.101562 155.988281 196.742188 156.347656 C 196.382812 156.710938 195.796875 156.714844 195.433594 156.355469 C 195.070312 155.996094 195.066406 155.410156 195.425781 155.050781 Z M 182.519531 182.597656 L 193.191406 171.835938 C 194.605469 170.410156 195.511719 168.605469 195.8125 166.625 L 197.042969 158.480469 L 197.113281 158.492188 C 197.589844 158.570312 198.035156 158.246094 198.113281 157.773438 L 198.621094 154.632812 C 198.761719 153.777344 198.179688 152.972656 197.324219 152.832031 L 195.925781 152.609375 C 195.070312 152.46875 194.265625 153.050781 194.125 153.90625 L 193.617188 157.046875 C 193.539062 157.519531 193.863281 157.96875 194.339844 158.046875 L 193.101562 166.214844 C 192.890625 167.621094 192.25 168.898438 191.246094 169.914062 L 178.019531 183.246094 C 177.222656 183.308594 176.421875 183.339844 175.609375 183.339844 C 157.5625 183.367188 142.910156 168.792969 142.878906 150.78125 C 142.851562 132.769531 157.457031 118.144531 175.503906 118.117188 C 193.546875 118.085938 208.203125 132.664062 208.230469 150.671875 C 208.257812 166.320312 197.242188 179.40625 182.519531 182.597656 Z M 139.097656 172.425781 C 138.398438 172.425781 137.828125 171.867188 137.824219 171.167969 L 137.699219 147.265625 C 137.695312 146.566406 138.261719 145.996094 138.960938 145.996094 C 139.660156 145.992188 140.226562 146.550781 140.230469 147.25 L 140.355469 171.152344 C 140.359375 171.851562 139.796875 172.421875 139.097656 172.425781 Z M 214.589844 170.570312 L 214.480469 148.828125 C 213.925781 142.664062 211.910156 136.898438 208.769531 131.847656 C 207.195312 129.316406 205.398438 127.050781 203.425781 125.042969 L 202.523438 125.960938 C 195.8125 118.6875 186.1875 114.136719 175.496094 114.152344 C 164.808594 114.171875 155.203125 118.75 148.515625 126.042969 L 147.4375 125.121094 C 145.40625 127.203125 143.5625 129.554688 141.960938 132.191406 C 138.875 137.273438 136.917969 143.0625 136.429688 149.230469 L 136.542969 170.976562 C 136.472656 171.695312 136.273438 172.359375 135.976562 172.957031 C 135.273438 174.066406 134.523438 174.824219 133.769531 175.328125 C 133.621094 175.417969 133.464844 175.503906 133.308594 175.578125 L 133.3125 175.601562 C 132.300781 176.140625 131.300781 176.253906 130.417969 176.164062 L 130.414062 176.144531 C 130.191406 176.128906 129.96875 176.097656 129.746094 176.058594 C 128.726562 175.832031 127.9375 175.386719 127.597656 175.167969 C 127.535156 175.125 127.472656 175.089844 127.414062 175.042969 C 126.480469 174.367188 125.625 173.585938 124.863281 172.722656 C 124.207031 171.980469 123.765625 171.089844 123.550781 170.136719 L 123.550781 203.800781 C 123.550781 214.523438 135.179688 221.222656 144.484375 215.863281 L 216.582031 174.316406 C 215.511719 173.417969 214.753906 172.125 214.589844 170.570312 " fill-opacity="1" fill-rule="nonzero"/></g><path fill="#00bf63" d="M 229.144531 166.871094 L 229.082031 154.847656 C 230.902344 156.222656 232.082031 158.394531 232.09375 160.84375 C 232.105469 163.296875 230.949219 165.480469 229.144531 166.871094 Z M 242.460938 135.285156 L 208.519531 115.726562 C 209.222656 116.367188 209.921875 117.027344 210.621094 117.710938 L 208.765625 119.601562 C 215.414062 126.386719 219.773438 134.742188 221.449219 143.792969 C 223.269531 144.707031 224.886719 145.96875 226.210938 147.488281 C 227.125 148.539062 227.609375 149.894531 227.617188 151.289062 L 227.703125 167.910156 L 242.460938 159.40625 C 251.761719 154.046875 251.761719 140.644531 242.460938 135.285156 " fill-opacity="1" fill-rule="nonzero"/><path fill="#2e5da1" d="M 196.695312 148.769531 C 196.695312 148.699219 196.691406 148.632812 196.691406 148.558594 C 196.6875 148.488281 196.675781 148.414062 196.671875 148.339844 C 196.660156 148.195312 196.644531 148.039062 196.628906 147.878906 C 196.625 147.800781 196.617188 147.722656 196.609375 147.636719 C 196.601562 147.558594 196.59375 147.472656 196.582031 147.390625 C 196.558594 147.222656 196.53125 147.050781 196.507812 146.871094 C 196.496094 146.785156 196.480469 146.695312 196.46875 146.601562 C 196.457031 146.511719 196.445312 146.421875 196.421875 146.328125 C 196.386719 146.144531 196.347656 145.957031 196.308594 145.761719 C 196.238281 145.375 196.125 144.980469 196.023438 144.570312 C 195.976562 144.363281 195.90625 144.15625 195.84375 143.949219 C 195.808594 143.84375 195.777344 143.738281 195.742188 143.632812 C 195.726562 143.578125 195.710938 143.523438 195.691406 143.46875 C 195.675781 143.417969 195.660156 143.363281 195.636719 143.3125 C 195.558594 143.097656 195.480469 142.886719 195.398438 142.667969 C 195.378906 142.613281 195.359375 142.558594 195.335938 142.503906 C 195.320312 142.449219 195.296875 142.394531 195.273438 142.339844 C 195.226562 142.234375 195.179688 142.121094 195.132812 142.015625 C 195.085938 141.90625 195.039062 141.796875 194.992188 141.683594 C 194.945312 141.574219 194.898438 141.464844 194.84375 141.355469 C 194.734375 141.136719 194.625 140.917969 194.515625 140.695312 C 194.488281 140.640625 194.460938 140.585938 194.433594 140.53125 C 194.40625 140.476562 194.375 140.421875 194.34375 140.367188 C 194.285156 140.257812 194.222656 140.148438 194.160156 140.039062 C 194.097656 139.929688 194.039062 139.820312 193.976562 139.710938 L 193.929688 139.628906 L 193.878906 139.546875 C 193.84375 139.492188 193.8125 139.4375 193.777344 139.386719 C 193.644531 139.167969 193.507812 138.949219 193.367188 138.734375 C 193.222656 138.523438 193.074219 138.3125 192.921875 138.097656 L 192.8125 137.9375 C 192.773438 137.886719 192.730469 137.835938 192.695312 137.785156 C 192.613281 137.679688 192.53125 137.574219 192.453125 137.472656 C 192.371094 137.371094 192.292969 137.265625 192.210938 137.164062 C 192.132812 137.058594 192.042969 136.960938 191.957031 136.863281 C 191.871094 136.761719 191.785156 136.660156 191.699219 136.5625 L 191.570312 136.414062 L 191.503906 136.335938 L 191.4375 136.265625 C 191.257812 136.074219 191.074219 135.882812 190.894531 135.691406 C 190.148438 134.941406 189.351562 134.242188 188.519531 133.621094 C 188.308594 133.464844 188.09375 133.316406 187.886719 133.167969 L 187.726562 133.058594 C 187.675781 133.019531 187.621094 132.984375 187.566406 132.949219 C 187.457031 132.882812 187.351562 132.8125 187.242188 132.746094 C 187.136719 132.679688 187.027344 132.609375 186.921875 132.542969 C 186.867188 132.507812 186.8125 132.476562 186.761719 132.441406 C 186.707031 132.410156 186.652344 132.382812 186.59375 132.347656 C 186.375 132.226562 186.160156 132.105469 185.941406 131.984375 L 185.863281 131.9375 L 185.78125 131.898438 C 185.722656 131.871094 185.667969 131.839844 185.613281 131.8125 C 185.503906 131.761719 185.394531 131.707031 185.285156 131.652344 C 185.179688 131.597656 185.070312 131.542969 184.960938 131.488281 C 184.851562 131.4375 184.742188 131.394531 184.632812 131.347656 C 184.414062 131.25 184.199219 131.15625 183.988281 131.0625 C 183.769531 130.980469 183.554688 130.902344 183.34375 130.824219 C 183.234375 130.78125 183.128906 130.742188 183.027344 130.703125 C 182.917969 130.667969 182.8125 130.636719 182.710938 130.601562 C 182.5 130.539062 182.292969 130.472656 182.089844 130.410156 L 182.015625 130.382812 L 181.9375 130.363281 C 181.886719 130.351562 181.835938 130.335938 181.785156 130.324219 C 181.683594 130.296875 181.585938 130.273438 181.484375 130.246094 C 181.386719 130.222656 181.289062 130.195312 181.191406 130.171875 C 181.09375 130.144531 180.996094 130.117188 180.898438 130.101562 C 180.707031 130.058594 180.519531 130.023438 180.332031 129.984375 C 180.148438 129.949219 179.96875 129.90625 179.789062 129.882812 C 179.613281 129.859375 179.441406 129.832031 179.273438 129.808594 C 179.1875 129.796875 179.105469 129.785156 179.023438 129.773438 C 178.984375 129.765625 178.945312 129.757812 178.902344 129.753906 C 178.863281 129.753906 178.824219 129.746094 178.78125 129.742188 C 178.464844 129.714844 178.167969 129.683594 177.894531 129.660156 C 177.617188 129.648438 177.363281 129.640625 177.136719 129.628906 C 177.023438 129.628906 176.914062 129.625 176.8125 129.617188 C 176.710938 129.617188 176.617188 129.621094 176.527344 129.625 C 176.351562 129.628906 176.199219 129.628906 176.078125 129.632812 C 175.832031 129.640625 175.703125 129.644531 175.703125 129.644531 C 175.703125 129.644531 175.832031 129.65625 176.078125 129.675781 C 176.199219 129.6875 176.347656 129.699219 176.523438 129.714844 C 176.609375 129.722656 176.707031 129.730469 176.804688 129.738281 C 176.90625 129.753906 177.011719 129.765625 177.125 129.78125 C 177.351562 129.808594 177.601562 129.839844 177.871094 129.878906 C 178.140625 129.925781 178.429688 129.976562 178.738281 130.027344 C 178.777344 130.035156 178.816406 130.042969 178.855469 130.046875 C 178.894531 130.054688 178.933594 130.066406 178.976562 130.074219 C 179.054688 130.09375 179.132812 130.109375 179.214844 130.128906 C 179.378906 130.164062 179.546875 130.203125 179.71875 130.238281 C 179.890625 130.273438 180.066406 130.328125 180.242188 130.375 C 180.421875 130.421875 180.605469 130.472656 180.792969 130.523438 C 180.882812 130.542969 180.976562 130.578125 181.070312 130.605469 C 181.164062 130.636719 181.257812 130.664062 181.355469 130.695312 C 181.449219 130.726562 181.546875 130.757812 181.644531 130.789062 C 181.691406 130.804688 181.742188 130.820312 181.789062 130.835938 L 181.863281 130.859375 L 181.9375 130.886719 C 182.132812 130.957031 182.328125 131.03125 182.53125 131.105469 C 182.628906 131.144531 182.734375 131.179688 182.832031 131.21875 C 182.933594 131.261719 183.035156 131.304688 183.136719 131.347656 C 183.339844 131.433594 183.542969 131.523438 183.753906 131.609375 C 183.957031 131.707031 184.160156 131.808594 184.371094 131.90625 C 184.472656 131.957031 184.578125 132.003906 184.683594 132.058594 C 184.785156 132.113281 184.890625 132.167969 184.992188 132.222656 C 185.097656 132.28125 185.203125 132.335938 185.308594 132.390625 C 185.359375 132.421875 185.410156 132.449219 185.464844 132.476562 L 185.542969 132.519531 L 185.621094 132.566406 C 186.453125 133.042969 187.273438 133.59375 188.078125 134.199219 C 188.875 134.8125 189.640625 135.492188 190.359375 136.214844 C 190.535156 136.398438 190.710938 136.585938 190.886719 136.769531 L 190.953125 136.839844 L 191.015625 136.910156 L 191.140625 137.054688 C 191.222656 137.148438 191.308594 137.246094 191.390625 137.34375 C 191.472656 137.4375 191.558594 137.53125 191.636719 137.632812 C 191.714844 137.730469 191.796875 137.832031 191.875 137.929688 C 191.953125 138.027344 192.03125 138.125 192.109375 138.226562 C 192.148438 138.273438 192.1875 138.324219 192.226562 138.375 L 192.335938 138.527344 C 192.484375 138.730469 192.628906 138.933594 192.773438 139.136719 C 192.914062 139.339844 193.046875 139.550781 193.183594 139.757812 C 193.21875 139.808594 193.25 139.859375 193.285156 139.910156 L 193.335938 139.988281 L 193.382812 140.066406 C 193.445312 140.171875 193.507812 140.273438 193.566406 140.378906 C 193.628906 140.484375 193.691406 140.589844 193.753906 140.691406 C 193.785156 140.746094 193.816406 140.796875 193.84375 140.847656 C 193.875 140.902344 193.902344 140.953125 193.929688 141.007812 C 194.042969 141.21875 194.152344 141.429688 194.265625 141.636719 C 194.324219 141.738281 194.367188 141.847656 194.417969 141.953125 C 194.46875 142.054688 194.519531 142.160156 194.570312 142.265625 C 194.617188 142.371094 194.667969 142.472656 194.71875 142.578125 C 194.742188 142.628906 194.765625 142.679688 194.785156 142.734375 C 194.808594 142.785156 194.828125 142.839844 194.851562 142.890625 C 194.9375 143.097656 195.023438 143.304688 195.109375 143.507812 C 195.132812 143.554688 195.152344 143.609375 195.167969 143.660156 C 195.1875 143.710938 195.207031 143.761719 195.226562 143.8125 C 195.261719 143.914062 195.300781 144.015625 195.335938 144.117188 C 195.40625 144.316406 195.488281 144.515625 195.546875 144.710938 C 195.667969 145.109375 195.800781 145.488281 195.890625 145.863281 C 195.9375 146.046875 195.988281 146.230469 196.035156 146.410156 C 196.058594 146.5 196.078125 146.589844 196.097656 146.675781 C 196.117188 146.765625 196.132812 146.851562 196.152344 146.9375 C 196.191406 147.109375 196.226562 147.277344 196.261719 147.441406 C 196.28125 147.523438 196.292969 147.601562 196.308594 147.683594 C 196.320312 147.761719 196.335938 147.839844 196.347656 147.917969 C 196.371094 148.074219 196.398438 148.222656 196.421875 148.367188 C 196.433594 148.441406 196.445312 148.511719 196.457031 148.582031 C 196.464844 148.652344 196.472656 148.722656 196.480469 148.789062 C 196.515625 149.058594 196.546875 149.308594 196.574219 149.53125 C 196.613281 149.984375 196.636719 150.339844 196.660156 150.582031 C 196.667969 150.703125 196.671875 150.796875 196.675781 150.859375 C 196.679688 150.921875 196.679688 150.957031 196.679688 150.957031 C 196.679688 150.957031 196.683594 150.921875 196.6875 150.859375 C 196.691406 150.796875 196.699219 150.703125 196.703125 150.582031 C 196.703125 150.460938 196.710938 150.308594 196.710938 150.132812 C 196.714844 149.957031 196.726562 149.753906 196.722656 149.527344 C 196.714844 149.296875 196.707031 149.046875 196.695312 148.769531 " fill-opacity="1" fill-rule="nonzero"/><path fill="#2e5da1" d="M 194.992188 130.8125 C 194.5 130.332031 193.984375 129.871094 193.460938 129.433594 C 193.199219 129.210938 192.929688 129 192.660156 128.789062 C 192.390625 128.585938 192.121094 128.378906 191.84375 128.1875 C 191.570312 127.984375 191.289062 127.800781 191.011719 127.613281 C 190.726562 127.429688 190.449219 127.25 190.164062 127.078125 C 189.882812 126.90625 189.59375 126.746094 189.308594 126.582031 C 189.023438 126.425781 188.738281 126.269531 188.449219 126.125 C 187.304688 125.535156 186.148438 125.066406 185.035156 124.675781 C 184.476562 124.492188 183.929688 124.3125 183.394531 124.171875 C 182.859375 124.023438 182.335938 123.90625 181.835938 123.796875 C 181.585938 123.746094 181.335938 123.703125 181.09375 123.65625 C 180.851562 123.613281 180.617188 123.574219 180.386719 123.539062 C 180.15625 123.507812 179.929688 123.476562 179.710938 123.449219 C 179.488281 123.425781 179.277344 123.402344 179.070312 123.378906 C 178.242188 123.296875 177.515625 123.273438 176.917969 123.257812 C 176.621094 123.261719 176.355469 123.257812 176.125 123.261719 C 175.894531 123.269531 175.695312 123.277344 175.539062 123.277344 C 175.21875 123.296875 175.050781 123.304688 175.050781 123.304688 C 175.050781 123.304688 175.21875 123.3125 175.539062 123.324219 C 175.695312 123.332031 175.890625 123.339844 176.121094 123.351562 C 176.238281 123.355469 176.363281 123.371094 176.492188 123.378906 C 176.625 123.386719 176.765625 123.398438 176.914062 123.40625 C 177.503906 123.460938 178.21875 123.539062 179.03125 123.664062 C 179.234375 123.695312 179.445312 123.730469 179.660156 123.769531 C 179.875 123.808594 180.097656 123.851562 180.324219 123.894531 C 180.546875 123.945312 180.78125 123.992188 181.015625 124.042969 C 181.25 124.101562 181.492188 124.15625 181.738281 124.21875 C 182.226562 124.347656 182.734375 124.484375 183.25 124.65625 C 183.773438 124.816406 184.300781 125.003906 184.84375 125.203125 C 184.976562 125.257812 185.113281 125.308594 185.25 125.363281 C 185.316406 125.390625 185.382812 125.417969 185.453125 125.445312 C 185.519531 125.472656 185.589844 125.5 185.65625 125.53125 C 185.792969 125.589844 185.929688 125.648438 186.066406 125.707031 C 186.203125 125.765625 186.34375 125.828125 186.480469 125.890625 C 186.617188 125.953125 186.757812 126.019531 186.894531 126.085938 C 187.03125 126.152344 187.171875 126.214844 187.308594 126.285156 C 187.585938 126.425781 187.863281 126.5625 188.140625 126.714844 C 188.417969 126.859375 188.691406 127.023438 188.96875 127.175781 C 189.242188 127.34375 189.523438 127.503906 189.792969 127.675781 C 190.34375 128.019531 190.882812 128.386719 191.414062 128.773438 C 191.683594 128.964844 191.945312 129.171875 192.207031 129.371094 C 192.464844 129.582031 192.726562 129.785156 192.980469 130.003906 C 193.492188 130.433594 193.988281 130.878906 194.46875 131.347656 C 195.429688 132.28125 196.316406 133.285156 197.125 134.324219 C 197.230469 134.453125 197.324219 134.589844 197.425781 134.71875 C 197.472656 134.785156 197.523438 134.851562 197.570312 134.914062 C 197.621094 134.980469 197.664062 135.046875 197.714844 135.113281 C 197.808594 135.246094 197.902344 135.378906 197.996094 135.511719 C 198.089844 135.648438 198.179688 135.78125 198.269531 135.914062 C 198.363281 136.046875 198.445312 136.183594 198.535156 136.320312 C 198.621094 136.453125 198.707031 136.589844 198.789062 136.726562 C 198.875 136.863281 198.957031 136.996094 199.039062 137.128906 C 199.117188 137.269531 199.199219 137.402344 199.277344 137.539062 C 199.589844 138.085938 199.878906 138.628906 200.144531 139.175781 C 200.28125 139.445312 200.402344 139.71875 200.527344 139.984375 C 200.589844 140.121094 200.648438 140.253906 200.707031 140.390625 C 200.765625 140.523438 200.824219 140.65625 200.875 140.789062 C 200.929688 140.921875 200.984375 141.054688 201.039062 141.1875 C 201.089844 141.320312 201.140625 141.453125 201.1875 141.582031 C 201.292969 141.84375 201.378906 142.105469 201.472656 142.359375 C 201.519531 142.488281 201.558594 142.617188 201.601562 142.742188 C 201.640625 142.871094 201.683594 142.996094 201.726562 143.121094 C 201.800781 143.371094 201.878906 143.617188 201.945312 143.859375 C 202.082031 144.347656 202.203125 144.816406 202.304688 145.265625 C 202.355469 145.488281 202.410156 145.707031 202.449219 145.921875 C 202.492188 146.136719 202.539062 146.34375 202.574219 146.542969 C 202.609375 146.746094 202.648438 146.941406 202.675781 147.132812 C 202.703125 147.324219 202.734375 147.507812 202.761719 147.683594 C 202.785156 147.859375 202.808594 148.027344 202.828125 148.191406 C 202.839844 148.269531 202.847656 148.347656 202.859375 148.425781 C 202.867188 148.503906 202.875 148.578125 202.882812 148.652344 C 202.898438 148.800781 202.914062 148.941406 202.925781 149.070312 C 202.941406 149.203125 202.949219 149.324219 202.960938 149.441406 C 202.96875 149.554688 202.980469 149.660156 202.988281 149.757812 C 202.996094 149.855469 203 149.945312 203.003906 150.023438 C 203.023438 150.339844 203.035156 150.511719 203.035156 150.511719 C 203.035156 150.511719 203.039062 150.339844 203.046875 150.023438 C 203.050781 149.941406 203.054688 149.855469 203.050781 149.757812 C 203.050781 149.660156 203.050781 149.550781 203.050781 149.4375 C 203.050781 149.320312 203.050781 149.195312 203.046875 149.066406 C 203.042969 148.933594 203.039062 148.792969 203.03125 148.640625 C 203.027344 148.566406 203.027344 148.492188 203.023438 148.414062 C 203.019531 148.335938 203.011719 148.253906 203.007812 148.171875 C 202.996094 148.007812 202.988281 147.835938 202.976562 147.65625 C 202.957031 147.480469 202.941406 147.292969 202.925781 147.101562 C 202.90625 146.90625 202.878906 146.707031 202.855469 146.5 C 202.835938 146.296875 202.796875 146.082031 202.769531 145.863281 C 202.738281 145.644531 202.699219 145.421875 202.660156 145.191406 C 202.582031 144.730469 202.476562 144.253906 202.363281 143.753906 C 202.304688 143.503906 202.234375 143.25 202.171875 142.992188 C 202.136719 142.863281 202.097656 142.734375 202.0625 142.601562 C 202.023438 142.472656 201.992188 142.339844 201.949219 142.207031 C 201.867188 141.945312 201.785156 141.675781 201.6875 141.40625 C 201.640625 141.269531 201.597656 141.132812 201.546875 140.996094 C 201.5 140.859375 201.449219 140.722656 201.394531 140.585938 C 201.347656 140.445312 201.292969 140.308594 201.238281 140.171875 C 201.179688 140.03125 201.125 139.894531 201.070312 139.753906 C 200.949219 139.476562 200.835938 139.191406 200.703125 138.910156 C 200.453125 138.347656 200.164062 137.785156 199.859375 137.214844 C 199.242188 136.085938 198.519531 134.964844 197.703125 133.882812 C 196.890625 132.804688 195.976562 131.769531 194.992188 130.8125 " fill-opacity="1" fill-rule="nonzero"/></svg>