<svg xmlns="http://www.w3.org/2000/svg" xmlns:xlink="http://www.w3.org/1999/xlink" width="100" zoomAndPan="magnify" viewBox="0 0 75 74.999997" height="100" preserveAspectRatio="xMidYMid meet" version="1.0"><defs><clipPath id="95f779e371"><path d="M 1.0625 5.335938 L 66.839844 5.335938 L 66.839844 71.113281 L 1.0625 71.113281 Z M 1.0625 5.335938 " clip-rule="nonzero"/></clipPath><clipPath id="83f185ae9b"><path d="M 10.878906 2 L 43 2 L 43 40 L 10.878906 40 Z M 10.878906 2 " clip-rule="nonzero"/></clipPath><clipPath id="3880416876"><path d="M 10.878906 21 L 58 21 L 58 73 L 10.878906 73 Z M 10.878906 21 " clip-rule="nonzero"/></clipPath></defs><g clip-path="url(#95f779e371)"><path fill="#4ddde0" d="M 33.953125 71.113281 C 15.824219 71.113281 1.0625 56.355469 1.0625 38.226562 C 1.0625 20.097656 15.824219 5.335938 33.953125 5.335938 C 52.082031 5.335938 66.839844 20.097656 66.839844 38.226562 C 66.839844 56.355469 52.082031 71.113281 33.953125 71.113281 Z M 33.953125 5.824219 C 16.082031 5.824219 1.550781 20.355469 1.550781 38.226562 C 1.550781 56.09375 16.082031 70.628906 33.953125 70.628906 C 51.824219 70.628906 66.355469 56.09375 66.355469 38.226562 C 66.355469 20.355469 51.824219 5.824219 33.953125 5.824219 Z M 33.953125 5.824219 " fill-opacity="1" fill-rule="nonzero"/></g><path fill="#2e5da1" d="M 36.792969 37.617188 C 35.828125 37.621094 35.054688 38.402344 35.058594 39.359375 C 35.0625 40.3125 35.847656 41.085938 36.808594 41.078125 C 37.773438 41.074219 38.546875 40.296875 38.542969 39.339844 C 38.539062 38.382812 37.753906 37.613281 36.792969 37.617188 " fill-opacity="1" fill-rule="nonzero"/><path fill="#2e5da1" d="M 45.707031 37.980469 C 45.699219 37.910156 45.6875 37.835938 45.679688 37.761719 C 45.667969 37.6875 45.660156 37.609375 45.648438 37.535156 C 45.632812 37.457031 45.617188 37.375 45.601562 37.296875 C 45.539062 36.972656 45.445312 36.625 45.328125 36.265625 C 45.296875 36.175781 45.261719 36.085938 45.230469 35.992188 C 45.210938 35.945312 45.195312 35.902344 45.179688 35.855469 C 45.160156 35.808594 45.140625 35.761719 45.121094 35.71875 C 45.082031 35.625 45.042969 35.53125 45 35.441406 C 44.957031 35.347656 44.910156 35.253906 44.863281 35.164062 C 44.820312 35.066406 44.769531 34.976562 44.71875 34.886719 C 44.664062 34.792969 44.617188 34.699219 44.558594 34.609375 C 44.5 34.519531 44.445312 34.425781 44.386719 34.332031 C 44.328125 34.246094 44.265625 34.15625 44.203125 34.066406 C 44.140625 33.972656 44.070312 33.890625 44.003906 33.800781 C 43.9375 33.714844 43.871094 33.625 43.796875 33.542969 C 43.726562 33.457031 43.65625 33.375 43.582031 33.289062 C 43.503906 33.210938 43.429688 33.128906 43.351562 33.046875 L 43.296875 32.988281 L 43.234375 32.929688 L 43.113281 32.8125 L 42.996094 32.699219 C 42.953125 32.660156 42.910156 32.625 42.867188 32.589844 C 42.828125 32.554688 42.785156 32.515625 42.742188 32.480469 C 42.703125 32.445312 42.660156 32.40625 42.617188 32.375 C 42.53125 32.304688 42.441406 32.238281 42.355469 32.171875 C 42.316406 32.136719 42.269531 32.105469 42.222656 32.074219 C 42.179688 32.042969 42.136719 32.011719 42.089844 31.980469 C 42.046875 31.949219 42.003906 31.917969 41.957031 31.886719 C 41.914062 31.855469 41.867188 31.828125 41.820312 31.800781 C 41.777344 31.769531 41.730469 31.742188 41.6875 31.714844 C 41.640625 31.683594 41.597656 31.65625 41.550781 31.632812 C 41.457031 31.578125 41.367188 31.527344 41.273438 31.476562 C 41.230469 31.449219 41.183594 31.425781 41.136719 31.402344 C 41.089844 31.378906 41.046875 31.359375 41 31.335938 C 40.953125 31.3125 40.90625 31.289062 40.863281 31.265625 C 40.816406 31.242188 40.769531 31.226562 40.726562 31.203125 C 40.632812 31.164062 40.542969 31.125 40.453125 31.085938 C 40.359375 31.050781 40.269531 31.015625 40.179688 30.980469 C 40.136719 30.964844 40.09375 30.949219 40.046875 30.933594 C 40.003906 30.914062 39.960938 30.902344 39.914062 30.886719 C 39.828125 30.859375 39.738281 30.832031 39.65625 30.804688 C 39.613281 30.789062 39.570312 30.78125 39.527344 30.769531 C 39.484375 30.757812 39.441406 30.746094 39.398438 30.734375 C 39.359375 30.726562 39.316406 30.714844 39.277344 30.703125 C 39.234375 30.691406 39.195312 30.679688 39.152344 30.671875 C 39.070312 30.65625 38.992188 30.640625 38.914062 30.625 C 38.835938 30.609375 38.761719 30.589844 38.6875 30.582031 C 38.613281 30.570312 38.539062 30.558594 38.46875 30.546875 C 38.433594 30.542969 38.398438 30.539062 38.363281 30.53125 C 38.347656 30.53125 38.328125 30.527344 38.3125 30.523438 C 38.296875 30.523438 38.277344 30.523438 38.261719 30.519531 C 38.128906 30.507812 38.003906 30.492188 37.886719 30.484375 C 37.773438 30.476562 37.664062 30.476562 37.570312 30.46875 C 37.519531 30.46875 37.476562 30.46875 37.433594 30.464844 C 37.390625 30.464844 37.351562 30.464844 37.3125 30.46875 C 37.238281 30.46875 37.175781 30.46875 37.125 30.46875 C 37.019531 30.472656 36.964844 30.472656 36.964844 30.472656 C 36.964844 30.472656 37.019531 30.480469 37.121094 30.492188 C 37.171875 30.496094 37.234375 30.503906 37.308594 30.511719 C 37.347656 30.515625 37.386719 30.519531 37.429688 30.523438 C 37.46875 30.53125 37.515625 30.539062 37.5625 30.542969 C 37.65625 30.558594 37.761719 30.574219 37.875 30.589844 C 37.988281 30.613281 38.109375 30.636719 38.238281 30.660156 C 38.253906 30.664062 38.273438 30.667969 38.289062 30.667969 C 38.304688 30.671875 38.320312 30.679688 38.335938 30.683594 C 38.371094 30.691406 38.40625 30.699219 38.4375 30.707031 C 38.507812 30.722656 38.578125 30.738281 38.648438 30.757812 C 38.722656 30.773438 38.792969 30.796875 38.867188 30.816406 C 38.941406 30.835938 39.019531 30.859375 39.097656 30.882812 C 39.175781 30.90625 39.253906 30.933594 39.332031 30.957031 C 39.371094 30.972656 39.414062 30.984375 39.453125 31 C 39.492188 31.011719 39.535156 31.023438 39.574219 31.042969 C 39.65625 31.074219 39.738281 31.105469 39.824219 31.136719 C 39.867188 31.152344 39.90625 31.167969 39.949219 31.1875 C 39.992188 31.203125 40.035156 31.222656 40.078125 31.242188 C 40.160156 31.277344 40.246094 31.316406 40.332031 31.355469 C 40.417969 31.394531 40.503906 31.4375 40.589844 31.480469 C 40.632812 31.503906 40.679688 31.523438 40.722656 31.546875 C 40.765625 31.570312 40.808594 31.59375 40.851562 31.617188 C 40.894531 31.640625 40.9375 31.664062 40.980469 31.6875 C 41.023438 31.714844 41.070312 31.734375 41.113281 31.761719 C 41.457031 31.964844 41.800781 32.203125 42.136719 32.457031 C 42.21875 32.523438 42.300781 32.589844 42.382812 32.65625 C 42.421875 32.6875 42.460938 32.722656 42.503906 32.757812 C 42.542969 32.792969 42.582031 32.828125 42.621094 32.863281 C 42.660156 32.898438 42.703125 32.933594 42.742188 32.96875 L 42.855469 33.082031 L 42.96875 33.191406 L 43.082031 33.304688 C 43.15625 33.382812 43.230469 33.460938 43.304688 33.539062 C 43.375 33.617188 43.445312 33.699219 43.511719 33.777344 C 43.585938 33.859375 43.648438 33.941406 43.714844 34.027344 C 43.78125 34.109375 43.847656 34.191406 43.90625 34.277344 C 44.160156 34.613281 44.375 34.964844 44.570312 35.316406 C 44.617188 35.402344 44.664062 35.492188 44.710938 35.578125 C 44.753906 35.664062 44.796875 35.753906 44.835938 35.839844 C 44.859375 35.886719 44.878906 35.925781 44.898438 35.972656 C 44.917969 36.015625 44.9375 36.058594 44.957031 36.101562 C 44.992188 36.1875 45.027344 36.273438 45.0625 36.359375 C 45.195312 36.703125 45.308594 37.03125 45.390625 37.34375 C 45.410156 37.421875 45.433594 37.5 45.453125 37.574219 C 45.46875 37.648438 45.484375 37.722656 45.503906 37.792969 C 45.519531 37.867188 45.535156 37.9375 45.550781 38.003906 C 45.5625 38.074219 45.574219 38.140625 45.585938 38.203125 C 45.597656 38.269531 45.605469 38.332031 45.617188 38.390625 C 45.621094 38.421875 45.628906 38.453125 45.628906 38.480469 C 45.632812 38.511719 45.636719 38.539062 45.640625 38.566406 C 45.65625 38.679688 45.671875 38.785156 45.683594 38.878906 C 45.699219 39.066406 45.710938 39.21875 45.722656 39.320312 C 45.726562 39.421875 45.730469 39.472656 45.730469 39.472656 C 45.730469 39.472656 45.734375 39.460938 45.734375 39.433594 C 45.734375 39.410156 45.742188 39.371094 45.742188 39.316406 C 45.746094 39.214844 45.753906 39.066406 45.757812 38.875 C 45.75 38.6875 45.753906 38.453125 45.726562 38.1875 C 45.71875 38.121094 45.714844 38.050781 45.707031 37.980469 " fill-opacity="1" fill-rule="nonzero"/><path fill="#2e5da1" d="M 36.359375 48.175781 C 36.261719 48.164062 36.160156 48.148438 36.042969 48.136719 C 36.015625 48.132812 35.988281 48.128906 35.957031 48.125 C 35.929688 48.121094 35.898438 48.117188 35.867188 48.113281 C 35.808594 48.101562 35.742188 48.089844 35.679688 48.078125 C 35.613281 48.070312 35.546875 48.058594 35.476562 48.046875 C 35.410156 48.03125 35.339844 48.015625 35.265625 48 C 35.191406 47.984375 35.121094 47.96875 35.042969 47.949219 C 34.96875 47.929688 34.890625 47.910156 34.8125 47.890625 C 34.5 47.808594 34.167969 47.695312 33.820312 47.570312 C 33.734375 47.535156 33.648438 47.496094 33.5625 47.460938 C 33.515625 47.445312 33.472656 47.425781 33.429688 47.40625 C 33.386719 47.386719 33.34375 47.367188 33.296875 47.34375 C 33.210938 47.304688 33.121094 47.265625 33.03125 47.222656 C 32.945312 47.175781 32.855469 47.128906 32.769531 47.082031 C 32.414062 46.890625 32.058594 46.675781 31.71875 46.425781 C 31.632812 46.367188 31.550781 46.300781 31.46875 46.234375 C 31.382812 46.171875 31.296875 46.105469 31.21875 46.035156 C 31.136719 45.96875 31.054688 45.898438 30.976562 45.828125 C 30.898438 45.757812 30.820312 45.683594 30.742188 45.609375 L 30.683594 45.558594 L 30.625 45.5 L 30.515625 45.386719 L 30.402344 45.273438 C 30.367188 45.234375 30.332031 45.191406 30.292969 45.152344 C 30.257812 45.113281 30.222656 45.074219 30.1875 45.035156 C 30.152344 44.996094 30.117188 44.957031 30.082031 44.914062 C 30.015625 44.832031 29.949219 44.753906 29.882812 44.671875 C 29.625 44.339844 29.386719 44 29.183594 43.65625 C 29.15625 43.613281 29.132812 43.570312 29.105469 43.527344 C 29.082031 43.484375 29.058594 43.441406 29.035156 43.398438 C 29.011719 43.355469 28.988281 43.3125 28.964844 43.269531 C 28.9375 43.226562 28.917969 43.183594 28.898438 43.140625 C 28.851562 43.054688 28.808594 42.96875 28.769531 42.882812 C 28.730469 42.796875 28.691406 42.714844 28.652344 42.628906 C 28.636719 42.585938 28.617188 42.546875 28.597656 42.503906 C 28.578125 42.460938 28.5625 42.421875 28.546875 42.378906 C 28.515625 42.296875 28.480469 42.214844 28.449219 42.132812 C 28.433594 42.09375 28.421875 42.050781 28.40625 42.011719 C 28.394531 41.972656 28.378906 41.929688 28.367188 41.890625 C 28.339844 41.8125 28.3125 41.734375 28.289062 41.65625 C 28.265625 41.582031 28.242188 41.503906 28.222656 41.429688 C 28.199219 41.355469 28.175781 41.285156 28.160156 41.214844 C 28.144531 41.140625 28.125 41.070312 28.109375 41.003906 C 28.101562 40.96875 28.09375 40.9375 28.085938 40.902344 C 28.078125 40.886719 28.074219 40.871094 28.070312 40.855469 C 28.070312 40.839844 28.066406 40.820312 28.0625 40.804688 C 28.039062 40.675781 28.015625 40.554688 27.992188 40.445312 C 27.972656 40.332031 27.957031 40.226562 27.945312 40.132812 C 27.9375 40.085938 27.929688 40.042969 27.921875 40 C 27.917969 39.960938 27.914062 39.921875 27.910156 39.882812 C 27.902344 39.808594 27.894531 39.746094 27.890625 39.695312 C 27.878906 39.59375 27.871094 39.542969 27.871094 39.542969 C 27.871094 39.542969 27.871094 39.597656 27.867188 39.699219 C 27.867188 39.75 27.867188 39.8125 27.863281 39.886719 C 27.863281 39.921875 27.863281 39.960938 27.863281 40.003906 C 27.863281 40.046875 27.867188 40.09375 27.871094 40.140625 C 27.875 40.238281 27.878906 40.34375 27.882812 40.457031 C 27.894531 40.574219 27.90625 40.695312 27.921875 40.828125 C 27.921875 40.847656 27.925781 40.863281 27.925781 40.878906 C 27.929688 40.898438 27.933594 40.914062 27.933594 40.929688 C 27.941406 40.964844 27.945312 41 27.949219 41.035156 C 27.960938 41.105469 27.972656 41.175781 27.984375 41.25 C 27.992188 41.324219 28.011719 41.402344 28.027344 41.476562 C 28.042969 41.554688 28.0625 41.632812 28.078125 41.714844 C 28.085938 41.753906 28.097656 41.796875 28.109375 41.835938 C 28.121094 41.878906 28.132812 41.917969 28.140625 41.960938 C 28.152344 42 28.164062 42.042969 28.175781 42.085938 C 28.1875 42.128906 28.199219 42.171875 28.210938 42.210938 C 28.242188 42.296875 28.269531 42.382812 28.296875 42.472656 C 28.3125 42.515625 28.324219 42.558594 28.339844 42.601562 C 28.359375 42.644531 28.375 42.691406 28.390625 42.734375 C 28.425781 42.824219 28.460938 42.914062 28.496094 43.003906 C 28.539062 43.09375 28.578125 43.183594 28.617188 43.273438 C 28.640625 43.320312 28.65625 43.367188 28.679688 43.410156 C 28.703125 43.457031 28.726562 43.5 28.75 43.546875 C 28.773438 43.59375 28.796875 43.636719 28.820312 43.683594 C 28.84375 43.730469 28.867188 43.777344 28.894531 43.820312 C 28.945312 43.910156 28.996094 44 29.050781 44.09375 C 29.074219 44.140625 29.105469 44.183594 29.132812 44.226562 C 29.164062 44.273438 29.191406 44.316406 29.222656 44.363281 C 29.25 44.40625 29.28125 44.453125 29.308594 44.496094 C 29.339844 44.542969 29.371094 44.585938 29.402344 44.628906 C 29.433594 44.671875 29.464844 44.71875 29.496094 44.761719 C 29.53125 44.804688 29.558594 44.851562 29.59375 44.894531 C 29.664062 44.976562 29.734375 45.0625 29.800781 45.148438 C 29.835938 45.195312 29.871094 45.234375 29.910156 45.277344 C 29.945312 45.316406 29.980469 45.359375 30.019531 45.398438 C 30.054688 45.441406 30.09375 45.484375 30.128906 45.523438 L 30.246094 45.644531 L 30.480469 45.878906 C 30.5625 45.953125 30.644531 46.03125 30.726562 46.105469 C 30.8125 46.179688 30.898438 46.25 30.980469 46.320312 C 31.066406 46.394531 31.15625 46.457031 31.242188 46.523438 C 31.332031 46.589844 31.417969 46.660156 31.507812 46.71875 C 31.601562 46.78125 31.6875 46.84375 31.78125 46.902344 C 31.871094 46.960938 31.964844 47.015625 32.058594 47.070312 C 32.148438 47.128906 32.242188 47.175781 32.335938 47.230469 C 32.429688 47.277344 32.519531 47.332031 32.613281 47.375 C 32.707031 47.417969 32.800781 47.464844 32.894531 47.507812 C 32.988281 47.550781 33.082031 47.585938 33.175781 47.625 C 33.222656 47.644531 33.265625 47.664062 33.3125 47.683594 C 33.359375 47.699219 33.40625 47.71875 33.453125 47.734375 C 33.542969 47.765625 33.636719 47.800781 33.726562 47.832031 C 34.089844 47.945312 34.4375 48.039062 34.765625 48.101562 C 34.847656 48.113281 34.925781 48.128906 35.003906 48.144531 C 35.082031 48.15625 35.160156 48.164062 35.234375 48.175781 C 35.308594 48.183594 35.382812 48.195312 35.453125 48.203125 C 35.523438 48.210938 35.59375 48.214844 35.660156 48.222656 C 35.929688 48.25 36.164062 48.242188 36.355469 48.25 C 36.546875 48.246094 36.699219 48.238281 36.800781 48.234375 C 36.851562 48.230469 36.890625 48.226562 36.917969 48.226562 C 36.945312 48.222656 36.957031 48.222656 36.957031 48.222656 C 36.957031 48.222656 36.902344 48.21875 36.800781 48.210938 C 36.699219 48.203125 36.546875 48.191406 36.359375 48.175781 " fill-opacity="1" fill-rule="nonzero"/><path fill="#2e5da1" d="M 36.828125 44.449219 C 33.992188 44.464844 31.683594 42.191406 31.667969 39.375 C 31.652344 36.558594 33.9375 34.261719 36.773438 34.25 C 39.609375 34.234375 41.917969 36.503906 41.933594 39.320312 C 41.949219 42.140625 39.660156 44.433594 36.828125 44.449219 Z M 36.789062 33.074219 C 35.105469 33.078125 33.519531 33.734375 32.328125 34.921875 C 31.140625 36.105469 30.484375 37.683594 30.488281 39.359375 C 30.492188 41.035156 31.148438 42.609375 32.34375 43.792969 C 33.539062 44.972656 35.125 45.625 36.8125 45.621094 C 38.496094 45.617188 40.082031 44.964844 41.273438 43.777344 C 42.460938 42.589844 43.117188 41.015625 43.113281 39.335938 C 43.109375 37.664062 42.453125 36.089844 41.257812 34.90625 C 40.0625 33.722656 38.476562 33.074219 36.789062 33.074219 " fill-opacity="1" fill-rule="nonzero"/><path fill="#2e5da1" d="M 34.066406 36.503906 C 34.023438 36.546875 33.980469 36.59375 33.9375 36.636719 C 35.480469 35.226562 37.886719 35.253906 39.390625 36.738281 C 40.898438 38.21875 40.953125 40.605469 39.546875 42.152344 C 39.59375 42.113281 39.636719 42.070312 39.679688 42.027344 C 41.214844 40.484375 41.203125 38 39.652344 36.476562 C 38.101562 34.953125 35.601562 34.964844 34.066406 36.503906 " fill-opacity="1" fill-rule="nonzero"/><path fill="#2e5da1" d="M 36.363281 52.929688 C 36.3125 52.925781 36.261719 52.921875 36.203125 52.917969 C 36.144531 52.914062 36.085938 52.90625 36.019531 52.902344 C 35.953125 52.894531 35.882812 52.886719 35.8125 52.878906 C 35.773438 52.875 35.734375 52.875 35.699219 52.867188 C 35.660156 52.863281 35.621094 52.859375 35.578125 52.855469 C 35.5 52.84375 35.414062 52.832031 35.324219 52.820312 C 35.238281 52.808594 35.144531 52.792969 35.050781 52.78125 C 34.957031 52.765625 34.859375 52.746094 34.757812 52.730469 C 34.65625 52.714844 34.554688 52.691406 34.445312 52.671875 C 34.339844 52.652344 34.230469 52.625 34.117188 52.601562 C 33.894531 52.550781 33.660156 52.492188 33.417969 52.425781 C 33.296875 52.390625 33.171875 52.351562 33.046875 52.316406 C 32.984375 52.296875 32.921875 52.277344 32.859375 52.253906 C 32.796875 52.234375 32.730469 52.214844 32.667969 52.191406 C 32.539062 52.148438 32.410156 52.105469 32.277344 52.054688 C 32.210938 52.027344 32.148438 52.003906 32.082031 51.980469 C 32.015625 51.953125 31.949219 51.925781 31.882812 51.898438 C 31.816406 51.875 31.75 51.84375 31.679688 51.816406 C 31.613281 51.789062 31.546875 51.757812 31.480469 51.730469 C 31.34375 51.667969 31.207031 51.609375 31.074219 51.539062 C 30.800781 51.410156 30.53125 51.265625 30.257812 51.113281 C 30.1875 51.074219 30.121094 51.035156 30.050781 50.996094 C 29.984375 50.957031 29.917969 50.914062 29.847656 50.875 C 29.78125 50.832031 29.714844 50.789062 29.644531 50.746094 C 29.578125 50.703125 29.511719 50.664062 29.445312 50.617188 C 29.375 50.574219 29.308594 50.527344 29.242188 50.484375 C 29.175781 50.4375 29.109375 50.390625 29.042969 50.34375 C 29.011719 50.320312 28.976562 50.296875 28.945312 50.273438 C 28.910156 50.25 28.878906 50.226562 28.84375 50.199219 C 28.78125 50.152344 28.710938 50.105469 28.648438 50.054688 C 28.128906 49.65625 27.625 49.21875 27.15625 48.742188 C 26.921875 48.507812 26.699219 48.261719 26.484375 48.007812 C 26.375 47.882812 26.273438 47.753906 26.167969 47.628906 C 26.066406 47.496094 25.964844 47.367188 25.867188 47.234375 C 25.671875 46.972656 25.488281 46.707031 25.316406 46.433594 C 25.230469 46.300781 25.148438 46.164062 25.066406 46.027344 C 24.988281 45.890625 24.90625 45.753906 24.835938 45.617188 C 24.757812 45.480469 24.6875 45.34375 24.617188 45.207031 C 24.582031 45.136719 24.550781 45.070312 24.519531 45 C 24.484375 44.933594 24.449219 44.867188 24.421875 44.796875 C 24.390625 44.730469 24.359375 44.660156 24.328125 44.59375 C 24.296875 44.523438 24.269531 44.457031 24.238281 44.390625 C 24.222656 44.355469 24.210938 44.324219 24.195312 44.289062 C 24.183594 44.253906 24.167969 44.222656 24.15625 44.1875 C 24.128906 44.121094 24.101562 44.054688 24.074219 43.988281 C 23.972656 43.71875 23.878906 43.457031 23.796875 43.199219 C 23.710938 42.945312 23.640625 42.695312 23.578125 42.453125 C 23.546875 42.332031 23.519531 42.210938 23.488281 42.09375 C 23.464844 41.976562 23.4375 41.863281 23.414062 41.753906 C 23.390625 41.640625 23.371094 41.53125 23.347656 41.425781 C 23.332031 41.316406 23.3125 41.214844 23.296875 41.113281 C 23.230469 40.710938 23.191406 40.355469 23.164062 40.0625 C 23.160156 39.992188 23.152344 39.921875 23.148438 39.855469 C 23.144531 39.792969 23.136719 39.730469 23.136719 39.671875 C 23.128906 39.558594 23.125 39.460938 23.121094 39.382812 C 23.113281 39.226562 23.109375 39.140625 23.109375 39.140625 C 23.109375 39.140625 23.105469 39.226562 23.097656 39.382812 C 23.097656 39.460938 23.09375 39.558594 23.089844 39.675781 C 23.085938 39.789062 23.089844 39.921875 23.089844 40.066406 C 23.097656 40.363281 23.109375 40.722656 23.152344 41.132812 C 23.164062 41.234375 23.175781 41.339844 23.1875 41.449219 C 23.203125 41.558594 23.21875 41.667969 23.234375 41.785156 C 23.253906 41.898438 23.273438 42.015625 23.296875 42.136719 C 23.320312 42.253906 23.339844 42.375 23.367188 42.5 C 23.421875 42.75 23.484375 43.007812 23.558594 43.273438 C 23.628906 43.539062 23.71875 43.804688 23.8125 44.082031 C 24.007812 44.632812 24.242188 45.207031 24.539062 45.769531 C 24.613281 45.914062 24.691406 46.054688 24.769531 46.195312 C 24.851562 46.335938 24.929688 46.480469 25.019531 46.617188 C 25.105469 46.757812 25.195312 46.898438 25.285156 47.035156 C 25.382812 47.175781 25.472656 47.3125 25.574219 47.449219 C 25.671875 47.585938 25.773438 47.71875 25.878906 47.851562 C 25.984375 47.984375 26.089844 48.117188 26.199219 48.246094 C 26.421875 48.507812 26.648438 48.761719 26.890625 49.003906 C 27.371094 49.488281 27.890625 49.9375 28.429688 50.339844 C 28.96875 50.742188 29.53125 51.097656 30.097656 51.402344 C 30.378906 51.550781 30.660156 51.695312 30.945312 51.816406 C 31.082031 51.882812 31.226562 51.9375 31.363281 51.996094 C 31.433594 52.023438 31.503906 52.050781 31.574219 52.078125 C 31.640625 52.105469 31.710938 52.132812 31.78125 52.15625 C 31.847656 52.183594 31.917969 52.207031 31.984375 52.234375 C 32.054688 52.257812 32.121094 52.277344 32.191406 52.300781 C 32.324219 52.347656 32.460938 52.386719 32.589844 52.429688 C 32.65625 52.449219 32.722656 52.464844 32.789062 52.484375 C 32.855469 52.5 32.917969 52.519531 32.984375 52.539062 C 33.113281 52.570312 33.238281 52.601562 33.363281 52.632812 C 33.613281 52.6875 33.851562 52.738281 34.082031 52.777344 C 34.199219 52.792969 34.308594 52.816406 34.417969 52.828125 C 34.527344 52.84375 34.632812 52.859375 34.738281 52.871094 C 34.839844 52.882812 34.9375 52.894531 35.035156 52.902344 C 35.132812 52.914062 35.222656 52.921875 35.3125 52.929688 C 35.402344 52.933594 35.488281 52.9375 35.570312 52.945312 C 35.613281 52.945312 35.652344 52.949219 35.691406 52.949219 C 35.730469 52.953125 35.769531 52.953125 35.804688 52.953125 C 35.878906 52.957031 35.949219 52.960938 36.015625 52.960938 C 36.082031 52.960938 36.144531 52.960938 36.203125 52.960938 C 36.257812 52.960938 36.3125 52.960938 36.363281 52.960938 C 36.410156 52.960938 36.453125 52.960938 36.496094 52.960938 C 36.652344 52.957031 36.738281 52.953125 36.738281 52.953125 C 36.738281 52.953125 36.652344 52.949219 36.496094 52.9375 C 36.457031 52.9375 36.410156 52.933594 36.363281 52.929688 " fill-opacity="1" fill-rule="nonzero"/><g clip-path="url(#83f185ae9b)"><path fill="#4ddde0" d="M 11.453125 38 C 12.105469 37.242188 12.90625 36.605469 13.804688 36.144531 C 14.585938 31.695312 16.675781 27.570312 19.894531 24.191406 L 18.894531 23.339844 L 19.898438 24.1875 L 18.894531 23.339844 C 19.171875 23.011719 25.832031 15.367188 35.832031 14.914062 C 37.941406 14.820312 40.023438 15.046875 42.078125 15.59375 L 21.316406 3.683594 C 16.683594 1.023438 10.890625 4.347656 10.890625 9.664062 L 10.890625 39.054688 C 11 38.667969 11.1875 38.308594 11.453125 38 " fill-opacity="1" fill-rule="nonzero"/></g><path fill="#2e5da1" d="M 36.800781 51.375 C 36.761719 51.371094 36.710938 51.367188 36.640625 51.363281 C 36.570312 51.359375 36.484375 51.351562 36.382812 51.347656 C 36.332031 51.34375 36.277344 51.339844 36.21875 51.335938 C 36.164062 51.332031 36.101562 51.320312 36.035156 51.316406 C 35.90625 51.300781 35.765625 51.285156 35.609375 51.265625 C 35.453125 51.242188 35.289062 51.214844 35.109375 51.1875 C 34.753906 51.125 34.355469 51.039062 33.925781 50.925781 C 33.820312 50.902344 33.710938 50.863281 33.601562 50.832031 C 33.492188 50.796875 33.378906 50.761719 33.265625 50.726562 C 33.152344 50.6875 33.039062 50.648438 32.925781 50.605469 C 32.867188 50.585938 32.808594 50.5625 32.75 50.542969 L 32.703125 50.527344 L 32.660156 50.507812 C 32.632812 50.496094 32.601562 50.484375 32.574219 50.472656 C 32.457031 50.425781 32.339844 50.375 32.21875 50.328125 C 32.15625 50.304688 32.101562 50.273438 32.039062 50.246094 C 31.980469 50.21875 31.921875 50.191406 31.859375 50.164062 C 31.800781 50.136719 31.742188 50.105469 31.679688 50.078125 L 31.632812 50.058594 L 31.589844 50.035156 C 31.558594 50.019531 31.53125 50.003906 31.5 49.988281 C 31.378906 49.925781 31.257812 49.859375 31.136719 49.796875 C 30.65625 49.527344 30.175781 49.222656 29.714844 48.878906 C 29.253906 48.53125 28.808594 48.148438 28.390625 47.742188 C 27.976562 47.328125 27.589844 46.886719 27.238281 46.429688 C 26.890625 45.96875 26.582031 45.492188 26.308594 45.019531 C 26.246094 44.898438 26.179688 44.777344 26.117188 44.660156 C 26.101562 44.628906 26.085938 44.601562 26.070312 44.570312 C 26.054688 44.539062 26.035156 44.511719 26.023438 44.480469 C 25.996094 44.421875 25.964844 44.359375 25.9375 44.300781 C 25.910156 44.242188 25.882812 44.183594 25.851562 44.125 C 25.839844 44.09375 25.824219 44.0625 25.8125 44.035156 L 25.789062 43.992188 L 25.769531 43.945312 C 25.722656 43.828125 25.671875 43.710938 25.621094 43.59375 C 25.609375 43.566406 25.597656 43.535156 25.585938 43.507812 C 25.574219 43.480469 25.5625 43.449219 25.550781 43.421875 C 25.53125 43.363281 25.507812 43.304688 25.488281 43.246094 C 25.445312 43.132812 25.402344 43.019531 25.363281 42.90625 C 25.328125 42.792969 25.292969 42.683594 25.257812 42.574219 C 25.242188 42.519531 25.222656 42.464844 25.207031 42.410156 C 25.199219 42.382812 25.1875 42.359375 25.183594 42.332031 C 25.175781 42.304688 25.167969 42.277344 25.160156 42.25 C 25.046875 41.828125 24.957031 41.429688 24.894531 41.078125 C 24.863281 40.898438 24.835938 40.734375 24.8125 40.582031 C 24.792969 40.425781 24.777344 40.285156 24.761719 40.15625 C 24.753906 40.09375 24.746094 40.03125 24.738281 39.972656 C 24.734375 39.917969 24.730469 39.863281 24.726562 39.8125 C 24.722656 39.710938 24.714844 39.625 24.710938 39.558594 C 24.703125 39.488281 24.699219 39.433594 24.699219 39.398438 C 24.695312 39.363281 24.695312 39.34375 24.695312 39.34375 C 24.695312 39.34375 24.691406 39.363281 24.691406 39.398438 C 24.691406 39.433594 24.691406 39.488281 24.6875 39.558594 C 24.6875 39.628906 24.683594 39.710938 24.683594 39.8125 C 24.683594 39.863281 24.679688 39.917969 24.679688 39.976562 C 24.679688 40.035156 24.683594 40.097656 24.6875 40.160156 C 24.691406 40.292969 24.695312 40.433594 24.703125 40.589844 C 24.714844 40.75 24.734375 40.917969 24.75 41.097656 C 24.753906 41.144531 24.757812 41.1875 24.765625 41.234375 C 24.773438 41.28125 24.777344 41.328125 24.785156 41.375 C 24.800781 41.472656 24.816406 41.570312 24.828125 41.671875 C 24.835938 41.722656 24.84375 41.773438 24.855469 41.824219 C 24.863281 41.875 24.875 41.929688 24.886719 41.980469 C 24.90625 42.085938 24.929688 42.191406 24.953125 42.300781 C 24.957031 42.332031 24.964844 42.359375 24.96875 42.386719 C 24.976562 42.414062 24.984375 42.441406 24.992188 42.46875 C 25.003906 42.523438 25.019531 42.578125 25.035156 42.636719 C 25.0625 42.75 25.09375 42.863281 25.125 42.980469 C 25.160156 43.097656 25.199219 43.214844 25.234375 43.332031 C 25.253906 43.394531 25.273438 43.453125 25.292969 43.515625 C 25.304688 43.542969 25.3125 43.574219 25.324219 43.605469 C 25.335938 43.632812 25.347656 43.664062 25.359375 43.695312 C 25.40625 43.816406 25.453125 43.9375 25.5 44.0625 L 25.515625 44.105469 L 25.535156 44.152344 C 25.550781 44.183594 25.5625 44.214844 25.574219 44.246094 C 25.601562 44.304688 25.628906 44.367188 25.65625 44.429688 C 25.683594 44.492188 25.710938 44.554688 25.738281 44.617188 C 25.75 44.648438 25.769531 44.679688 25.78125 44.710938 C 25.796875 44.738281 25.8125 44.769531 25.828125 44.800781 C 25.890625 44.925781 25.953125 45.050781 26.015625 45.175781 C 26.085938 45.300781 26.15625 45.421875 26.226562 45.546875 C 26.246094 45.578125 26.261719 45.609375 26.28125 45.640625 L 26.308594 45.6875 C 26.316406 45.703125 26.324219 45.71875 26.335938 45.734375 C 26.375 45.796875 26.414062 45.855469 26.453125 45.917969 C 26.492188 45.980469 26.53125 46.039062 26.570312 46.101562 C 26.589844 46.132812 26.609375 46.164062 26.628906 46.195312 C 26.648438 46.222656 26.671875 46.253906 26.691406 46.285156 C 26.777344 46.40625 26.863281 46.523438 26.949219 46.644531 C 27.304688 47.121094 27.699219 47.578125 28.125 48.003906 C 28.558594 48.425781 29.019531 48.816406 29.496094 49.167969 C 29.621094 49.253906 29.742188 49.335938 29.863281 49.421875 C 29.890625 49.441406 29.921875 49.464844 29.953125 49.484375 C 29.984375 49.503906 30.015625 49.523438 30.046875 49.542969 C 30.109375 49.582031 30.171875 49.621094 30.234375 49.660156 C 30.292969 49.695312 30.355469 49.734375 30.417969 49.773438 C 30.449219 49.792969 30.480469 49.808594 30.511719 49.828125 C 30.542969 49.84375 30.574219 49.863281 30.605469 49.878906 C 30.730469 49.949219 30.855469 50.019531 30.980469 50.085938 C 31.105469 50.148438 31.234375 50.210938 31.355469 50.273438 C 31.386719 50.289062 31.417969 50.300781 31.449219 50.316406 L 31.496094 50.339844 C 31.511719 50.347656 31.527344 50.355469 31.542969 50.359375 C 31.609375 50.386719 31.671875 50.414062 31.734375 50.441406 C 31.796875 50.46875 31.859375 50.496094 31.917969 50.523438 C 31.980469 50.546875 32.042969 50.574219 32.105469 50.597656 C 32.230469 50.644531 32.351562 50.691406 32.476562 50.734375 C 32.503906 50.746094 32.535156 50.757812 32.566406 50.769531 L 32.609375 50.785156 L 32.65625 50.796875 C 32.71875 50.816406 32.777344 50.835938 32.839844 50.855469 C 32.957031 50.890625 33.074219 50.929688 33.191406 50.964844 C 33.3125 50.996094 33.425781 51.023438 33.539062 51.054688 C 33.65625 51.082031 33.765625 51.113281 33.875 51.132812 C 33.988281 51.15625 34.09375 51.175781 34.199219 51.199219 C 34.253906 51.207031 34.304688 51.21875 34.355469 51.230469 C 34.410156 51.238281 34.460938 51.246094 34.511719 51.253906 C 34.613281 51.265625 34.710938 51.28125 34.808594 51.292969 C 34.855469 51.300781 34.902344 51.308594 34.949219 51.316406 C 34.996094 51.320312 35.042969 51.324219 35.089844 51.328125 C 35.273438 51.34375 35.441406 51.363281 35.597656 51.375 C 35.757812 51.378906 35.902344 51.382812 36.035156 51.386719 C 36.097656 51.390625 36.160156 51.394531 36.21875 51.394531 C 36.277344 51.390625 36.332031 51.390625 36.382812 51.390625 C 36.484375 51.386719 36.570312 51.386719 36.640625 51.386719 C 36.710938 51.382812 36.761719 51.382812 36.800781 51.378906 C 36.816406 51.378906 36.832031 51.378906 36.839844 51.378906 C 36.847656 51.378906 36.855469 51.378906 36.855469 51.378906 C 36.855469 51.378906 36.847656 51.378906 36.839844 51.378906 C 36.832031 51.378906 36.816406 51.375 36.800781 51.375 " fill-opacity="1" fill-rule="nonzero"/><path fill="#2e5da1" d="M 36.765625 49.796875 C 36.644531 49.785156 36.464844 49.773438 36.238281 49.753906 C 36.125 49.742188 36.003906 49.726562 35.867188 49.710938 C 35.835938 49.707031 35.800781 49.703125 35.765625 49.699219 C 35.730469 49.695312 35.695312 49.6875 35.65625 49.683594 C 35.585938 49.671875 35.511719 49.660156 35.433594 49.644531 C 35.394531 49.640625 35.355469 49.632812 35.316406 49.625 C 35.273438 49.621094 35.234375 49.613281 35.195312 49.605469 C 35.113281 49.585938 35.027344 49.570312 34.941406 49.550781 C 34.898438 49.542969 34.855469 49.53125 34.8125 49.523438 C 34.769531 49.515625 34.722656 49.507812 34.679688 49.496094 C 34.589844 49.472656 34.5 49.449219 34.40625 49.425781 C 34.21875 49.378906 34.027344 49.316406 33.832031 49.253906 C 33.730469 49.226562 33.632812 49.1875 33.53125 49.152344 C 33.484375 49.132812 33.433594 49.117188 33.382812 49.097656 C 33.355469 49.089844 33.332031 49.078125 33.304688 49.070312 C 33.277344 49.0625 33.253906 49.050781 33.226562 49.039062 C 33.125 49 33.023438 48.957031 32.917969 48.914062 C 32.894531 48.902344 32.867188 48.890625 32.839844 48.882812 C 32.816406 48.871094 32.789062 48.859375 32.765625 48.847656 C 32.710938 48.824219 32.660156 48.800781 32.609375 48.773438 C 32.554688 48.75 32.503906 48.726562 32.453125 48.703125 C 32.398438 48.675781 32.34375 48.652344 32.292969 48.625 C 32.191406 48.570312 32.085938 48.515625 31.980469 48.460938 C 31.953125 48.445312 31.925781 48.433594 31.898438 48.417969 C 31.875 48.402344 31.847656 48.386719 31.820312 48.375 C 31.769531 48.34375 31.71875 48.3125 31.664062 48.28125 C 31.613281 48.25 31.5625 48.222656 31.507812 48.191406 L 31.429688 48.144531 C 31.402344 48.125 31.378906 48.109375 31.351562 48.09375 C 31.25 48.027344 31.144531 47.960938 31.042969 47.890625 C 30.941406 47.820312 30.839844 47.746094 30.738281 47.675781 L 30.660156 47.621094 C 30.636719 47.601562 30.613281 47.582031 30.585938 47.5625 C 30.539062 47.523438 30.488281 47.484375 30.4375 47.445312 C 30.390625 47.410156 30.339844 47.371094 30.289062 47.332031 C 30.238281 47.292969 30.191406 47.25 30.144531 47.207031 C 30.097656 47.167969 30.046875 47.125 30 47.085938 L 29.929688 47.023438 L 29.890625 46.992188 L 29.859375 46.960938 C 29.765625 46.875 29.671875 46.785156 29.582031 46.699219 C 29.21875 46.34375 28.878906 45.96875 28.570312 45.574219 C 28.265625 45.179688 27.988281 44.769531 27.75 44.359375 L 27.726562 44.320312 L 27.707031 44.285156 C 27.691406 44.257812 27.679688 44.230469 27.664062 44.207031 C 27.636719 44.152344 27.605469 44.101562 27.578125 44.050781 C 27.550781 44 27.523438 43.949219 27.496094 43.898438 C 27.46875 43.847656 27.445312 43.792969 27.417969 43.742188 C 27.371094 43.640625 27.320312 43.539062 27.269531 43.4375 C 27.226562 43.335938 27.183594 43.234375 27.140625 43.132812 C 27.117188 43.082031 27.097656 43.03125 27.074219 42.984375 C 27.054688 42.933594 27.035156 42.882812 27.015625 42.832031 C 26.980469 42.734375 26.941406 42.636719 26.90625 42.539062 L 26.894531 42.503906 L 26.878906 42.46875 C 26.871094 42.441406 26.863281 42.417969 26.855469 42.394531 C 26.839844 42.347656 26.824219 42.300781 26.8125 42.25 C 26.796875 42.203125 26.78125 42.15625 26.765625 42.109375 C 26.75 42.066406 26.734375 42.019531 26.722656 41.972656 C 26.695312 41.878906 26.671875 41.789062 26.648438 41.703125 C 26.625 41.613281 26.597656 41.527344 26.578125 41.441406 C 26.558594 41.359375 26.542969 41.273438 26.523438 41.195312 C 26.515625 41.152344 26.503906 41.113281 26.496094 41.074219 C 26.492188 41.054688 26.484375 41.035156 26.484375 41.015625 C 26.480469 40.996094 26.476562 40.976562 26.472656 40.957031 C 26.445312 40.804688 26.421875 40.660156 26.394531 40.527344 C 26.375 40.394531 26.363281 40.269531 26.347656 40.160156 C 26.339844 40.105469 26.332031 40.050781 26.324219 40 C 26.320312 39.953125 26.316406 39.90625 26.3125 39.863281 C 26.304688 39.773438 26.296875 39.699219 26.292969 39.640625 C 26.28125 39.519531 26.273438 39.457031 26.273438 39.457031 C 26.273438 39.457031 26.273438 39.519531 26.269531 39.640625 C 26.269531 39.703125 26.269531 39.773438 26.265625 39.863281 C 26.265625 39.90625 26.265625 39.953125 26.265625 40.003906 C 26.265625 40.054688 26.269531 40.109375 26.273438 40.164062 C 26.277344 40.277344 26.28125 40.402344 26.289062 40.539062 C 26.300781 40.675781 26.316406 40.824219 26.332031 40.980469 C 26.332031 41 26.335938 41.019531 26.335938 41.039062 C 26.339844 41.058594 26.34375 41.078125 26.34375 41.101562 C 26.351562 41.140625 26.359375 41.179688 26.363281 41.222656 C 26.375 41.304688 26.390625 41.390625 26.402344 41.480469 C 26.414062 41.566406 26.433594 41.65625 26.453125 41.746094 C 26.472656 41.839844 26.492188 41.933594 26.511719 42.027344 C 26.519531 42.074219 26.535156 42.121094 26.546875 42.171875 C 26.558594 42.21875 26.574219 42.269531 26.585938 42.316406 C 26.597656 42.367188 26.613281 42.414062 26.625 42.464844 C 26.632812 42.492188 26.640625 42.515625 26.644531 42.539062 L 26.667969 42.617188 C 26.699219 42.71875 26.734375 42.820312 26.765625 42.921875 C 26.78125 42.972656 26.800781 43.027344 26.816406 43.078125 C 26.835938 43.128906 26.855469 43.183594 26.875 43.234375 C 26.917969 43.339844 26.957031 43.445312 27 43.554688 C 27.046875 43.660156 27.09375 43.765625 27.140625 43.875 C 27.164062 43.925781 27.1875 43.984375 27.210938 44.035156 C 27.238281 44.089844 27.265625 44.144531 27.292969 44.195312 C 27.320312 44.25 27.347656 44.304688 27.375 44.359375 C 27.390625 44.386719 27.402344 44.414062 27.417969 44.441406 L 27.4375 44.480469 L 27.460938 44.519531 C 27.519531 44.628906 27.582031 44.734375 27.644531 44.84375 C 27.660156 44.871094 27.675781 44.898438 27.691406 44.925781 C 27.707031 44.953125 27.726562 44.976562 27.742188 45.003906 C 27.777344 45.058594 27.808594 45.109375 27.84375 45.164062 C 27.878906 45.214844 27.910156 45.269531 27.945312 45.324219 C 27.960938 45.351562 27.980469 45.375 28 45.402344 L 28.054688 45.480469 C 28.128906 45.585938 28.203125 45.691406 28.28125 45.792969 C 28.59375 46.207031 28.945312 46.597656 29.320312 46.964844 C 29.414062 47.054688 29.511719 47.144531 29.605469 47.234375 L 29.644531 47.269531 L 29.679688 47.300781 L 29.757812 47.363281 C 29.804688 47.40625 29.855469 47.449219 29.90625 47.492188 C 29.957031 47.53125 30.003906 47.578125 30.054688 47.617188 C 30.109375 47.65625 30.160156 47.695312 30.210938 47.734375 C 30.265625 47.773438 30.316406 47.8125 30.367188 47.855469 C 30.394531 47.875 30.417969 47.894531 30.445312 47.914062 L 30.523438 47.96875 C 30.632812 48.039062 30.738281 48.113281 30.84375 48.1875 C 30.953125 48.253906 31.0625 48.320312 31.167969 48.386719 C 31.195312 48.40625 31.222656 48.421875 31.25 48.4375 L 31.289062 48.460938 L 31.332031 48.484375 C 31.386719 48.515625 31.441406 48.546875 31.496094 48.578125 C 31.550781 48.605469 31.605469 48.636719 31.660156 48.667969 C 31.6875 48.683594 31.714844 48.695312 31.742188 48.710938 C 31.769531 48.726562 31.796875 48.738281 31.824219 48.75 C 31.933594 48.804688 32.046875 48.859375 32.152344 48.910156 C 32.207031 48.941406 32.265625 48.960938 32.320312 48.984375 C 32.375 49.007812 32.429688 49.03125 32.484375 49.054688 C 32.539062 49.078125 32.59375 49.101562 32.644531 49.125 C 32.671875 49.136719 32.699219 49.144531 32.726562 49.15625 C 32.753906 49.164062 32.78125 49.175781 32.808594 49.183594 C 32.917969 49.226562 33.027344 49.265625 33.132812 49.300781 C 33.15625 49.3125 33.183594 49.320312 33.210938 49.328125 C 33.238281 49.335938 33.265625 49.34375 33.292969 49.355469 C 33.34375 49.371094 33.398438 49.386719 33.449219 49.402344 C 33.554688 49.433594 33.65625 49.46875 33.761719 49.492188 C 33.964844 49.542969 34.164062 49.597656 34.355469 49.632812 C 34.453125 49.648438 34.546875 49.667969 34.640625 49.6875 C 34.683594 49.695312 34.730469 49.703125 34.777344 49.707031 C 34.820312 49.714844 34.867188 49.722656 34.910156 49.726562 C 35 49.738281 35.085938 49.75 35.167969 49.761719 C 35.210938 49.769531 35.253906 49.773438 35.292969 49.773438 C 35.335938 49.777344 35.375 49.78125 35.414062 49.785156 C 35.492188 49.792969 35.570312 49.800781 35.644531 49.804688 C 35.679688 49.808594 35.71875 49.8125 35.753906 49.816406 C 35.789062 49.816406 35.824219 49.816406 35.859375 49.816406 C 35.996094 49.820312 36.121094 49.824219 36.238281 49.828125 C 36.351562 49.832031 36.449219 49.824219 36.539062 49.824219 C 36.628906 49.820312 36.703125 49.820312 36.761719 49.816406 C 36.824219 49.816406 36.871094 49.8125 36.902344 49.808594 C 36.933594 49.808594 36.949219 49.804688 36.949219 49.804688 C 36.949219 49.804688 36.933594 49.804688 36.902344 49.804688 C 36.871094 49.800781 36.824219 49.800781 36.765625 49.796875 " fill-opacity="1" fill-rule="nonzero"/><path fill="#2e5da1" d="M 48.898438 38.113281 C 48.886719 37.957031 48.867188 37.789062 48.851562 37.609375 C 48.847656 37.5625 48.84375 37.515625 48.835938 37.46875 C 48.832031 37.425781 48.824219 37.375 48.816406 37.328125 C 48.804688 37.234375 48.789062 37.136719 48.773438 37.035156 C 48.765625 36.984375 48.757812 36.933594 48.75 36.882812 C 48.738281 36.828125 48.726562 36.777344 48.71875 36.726562 C 48.695312 36.621094 48.671875 36.511719 48.652344 36.402344 C 48.628906 36.292969 48.597656 36.183594 48.570312 36.070312 C 48.539062 35.957031 48.511719 35.84375 48.480469 35.722656 C 48.445312 35.609375 48.40625 35.492188 48.367188 35.371094 C 48.347656 35.3125 48.332031 35.253906 48.308594 35.191406 L 48.296875 35.148438 L 48.277344 35.101562 C 48.265625 35.074219 48.257812 35.042969 48.246094 35.011719 C 48.199219 34.890625 48.152344 34.769531 48.105469 34.644531 C 48.085938 34.582031 48.054688 34.523438 48.03125 34.460938 C 48.003906 34.398438 47.976562 34.339844 47.949219 34.277344 C 47.921875 34.214844 47.894531 34.152344 47.867188 34.089844 C 47.859375 34.074219 47.851562 34.058594 47.847656 34.042969 L 47.824219 33.996094 C 47.808594 33.964844 47.792969 33.933594 47.777344 33.902344 C 47.714844 33.78125 47.652344 33.65625 47.589844 33.527344 C 47.519531 33.40625 47.449219 33.28125 47.378906 33.15625 C 47.363281 33.125 47.34375 33.09375 47.324219 33.0625 C 47.308594 33.03125 47.292969 33 47.269531 32.972656 C 47.234375 32.910156 47.195312 32.847656 47.15625 32.789062 C 47.117188 32.726562 47.078125 32.664062 47.039062 32.601562 C 47.019531 32.570312 47 32.539062 46.980469 32.511719 C 46.957031 32.480469 46.9375 32.449219 46.914062 32.421875 C 46.832031 32.300781 46.746094 32.179688 46.660156 32.058594 C 46.304688 31.582031 45.910156 31.128906 45.484375 30.699219 C 45.050781 30.277344 44.589844 29.886719 44.113281 29.53125 C 43.992188 29.449219 43.867188 29.363281 43.75 29.28125 C 43.71875 29.257812 43.6875 29.238281 43.65625 29.21875 C 43.625 29.199219 43.59375 29.179688 43.5625 29.160156 C 43.5 29.121094 43.4375 29.082031 43.378906 29.042969 C 43.316406 29.003906 43.253906 28.964844 43.191406 28.929688 C 43.175781 28.917969 43.164062 28.910156 43.148438 28.898438 L 43.097656 28.875 C 43.066406 28.855469 43.035156 28.839844 43.003906 28.820312 C 42.878906 28.75 42.753906 28.683594 42.628906 28.613281 C 42.503906 28.550781 42.378906 28.488281 42.253906 28.429688 C 42.222656 28.414062 42.191406 28.398438 42.160156 28.382812 C 42.128906 28.367188 42.097656 28.351562 42.066406 28.339844 C 42.003906 28.3125 41.941406 28.285156 41.878906 28.257812 C 41.816406 28.230469 41.753906 28.203125 41.691406 28.179688 C 41.660156 28.164062 41.628906 28.152344 41.597656 28.136719 L 41.550781 28.117188 L 41.503906 28.101562 C 41.382812 28.054688 41.257812 28.011719 41.136719 27.964844 C 41.105469 27.953125 41.074219 27.941406 41.046875 27.933594 C 41.015625 27.921875 40.984375 27.910156 40.953125 27.898438 C 40.894531 27.882812 40.832031 27.863281 40.773438 27.84375 C 40.652344 27.808594 40.535156 27.769531 40.417969 27.734375 C 40.300781 27.703125 40.183594 27.675781 40.070312 27.644531 C 40.015625 27.632812 39.957031 27.617188 39.902344 27.601562 C 39.875 27.597656 39.847656 27.585938 39.820312 27.582031 C 39.789062 27.578125 39.761719 27.570312 39.734375 27.566406 C 39.625 27.542969 39.515625 27.519531 39.410156 27.5 C 39.359375 27.488281 39.304688 27.480469 39.253906 27.46875 C 39.203125 27.460938 39.148438 27.453125 39.101562 27.445312 C 38.996094 27.429688 38.898438 27.417969 38.804688 27.402344 C 38.753906 27.394531 38.707031 27.390625 38.660156 27.382812 C 38.613281 27.375 38.566406 27.375 38.523438 27.367188 C 38.339844 27.351562 38.167969 27.335938 38.011719 27.324219 C 37.855469 27.316406 37.710938 27.3125 37.578125 27.308594 C 37.511719 27.304688 37.453125 27.304688 37.394531 27.300781 C 37.335938 27.304688 37.28125 27.304688 37.230469 27.304688 C 37.128906 27.308594 37.042969 27.308594 36.972656 27.3125 C 36.902344 27.3125 36.847656 27.316406 36.8125 27.316406 C 36.777344 27.316406 36.757812 27.316406 36.757812 27.316406 C 36.757812 27.316406 36.777344 27.316406 36.8125 27.320312 C 36.847656 27.324219 36.902344 27.328125 36.972656 27.332031 C 37.039062 27.339844 37.125 27.34375 37.226562 27.351562 C 37.277344 27.355469 37.332031 27.359375 37.390625 27.363281 C 37.449219 27.367188 37.507812 27.375 37.574219 27.382812 C 37.703125 27.398438 37.847656 27.414062 38 27.429688 C 38.15625 27.453125 38.324219 27.480469 38.5 27.511719 C 38.859375 27.574219 39.253906 27.660156 39.683594 27.773438 C 39.710938 27.78125 39.738281 27.785156 39.765625 27.792969 C 39.792969 27.800781 39.816406 27.808594 39.84375 27.816406 C 39.898438 27.835938 39.953125 27.851562 40.007812 27.867188 C 40.117188 27.902344 40.230469 27.9375 40.34375 27.972656 C 40.457031 28.011719 40.570312 28.050781 40.6875 28.09375 C 40.746094 28.113281 40.804688 28.136719 40.863281 28.15625 C 40.890625 28.167969 40.921875 28.179688 40.949219 28.191406 C 40.976562 28.203125 41.007812 28.214844 41.035156 28.226562 C 41.152344 28.273438 41.273438 28.324219 41.390625 28.375 L 41.4375 28.390625 L 41.480469 28.414062 C 41.511719 28.425781 41.539062 28.441406 41.570312 28.453125 C 41.628906 28.480469 41.691406 28.507812 41.75 28.539062 C 41.808594 28.566406 41.871094 28.59375 41.929688 28.621094 C 41.960938 28.636719 41.992188 28.652344 42.019531 28.667969 C 42.050781 28.683594 42.082031 28.699219 42.109375 28.714844 C 42.230469 28.777344 42.351562 28.839844 42.472656 28.902344 C 42.953125 29.175781 43.429688 29.480469 43.894531 29.824219 C 44.355469 30.171875 44.800781 30.554688 45.21875 30.960938 C 45.632812 31.375 46.015625 31.820312 46.367188 32.273438 C 46.714844 32.734375 47.023438 33.210938 47.296875 33.6875 C 47.363281 33.808594 47.425781 33.925781 47.488281 34.046875 C 47.503906 34.074219 47.519531 34.105469 47.535156 34.132812 L 47.5625 34.179688 L 47.582031 34.222656 C 47.613281 34.285156 47.640625 34.34375 47.667969 34.402344 C 47.695312 34.464844 47.726562 34.523438 47.753906 34.582031 C 47.78125 34.640625 47.8125 34.699219 47.835938 34.757812 C 47.886719 34.878906 47.933594 34.996094 47.984375 35.109375 C 47.996094 35.140625 48.007812 35.167969 48.019531 35.199219 L 48.039062 35.242188 L 48.054688 35.285156 C 48.074219 35.34375 48.097656 35.402344 48.117188 35.457031 C 48.160156 35.574219 48.199219 35.6875 48.242188 35.796875 C 48.277344 35.910156 48.3125 36.023438 48.347656 36.132812 C 48.378906 36.242188 48.417969 36.347656 48.441406 36.453125 C 48.558594 36.878906 48.648438 37.273438 48.710938 37.628906 C 48.738281 37.804688 48.765625 37.972656 48.792969 38.125 C 48.808594 38.28125 48.828125 38.421875 48.839844 38.550781 C 48.847656 38.613281 48.859375 38.675781 48.863281 38.730469 C 48.867188 38.789062 48.871094 38.84375 48.875 38.894531 C 48.882812 38.992188 48.886719 39.078125 48.890625 39.148438 C 48.898438 39.21875 48.902344 39.273438 48.90625 39.308594 C 48.90625 39.324219 48.90625 39.339844 48.90625 39.347656 C 48.90625 39.355469 48.90625 39.359375 48.90625 39.359375 C 48.90625 39.359375 48.90625 39.355469 48.910156 39.347656 C 48.910156 39.339844 48.910156 39.324219 48.910156 39.308594 C 48.910156 39.269531 48.914062 39.21875 48.914062 39.148438 C 48.914062 39.078125 48.917969 38.992188 48.917969 38.890625 C 48.917969 38.84375 48.921875 38.789062 48.921875 38.730469 C 48.921875 38.671875 48.917969 38.609375 48.914062 38.546875 C 48.910156 38.414062 48.90625 38.273438 48.898438 38.113281 " fill-opacity="1" fill-rule="nonzero"/><g clip-path="url(#3880416876)"><path fill="#2e5da1" d="M 54.921875 49.925781 C 54.574219 49.925781 54.289062 49.648438 54.289062 49.300781 L 54.226562 37.445312 C 54.226562 37.097656 54.507812 36.816406 54.855469 36.8125 C 55.203125 36.8125 55.488281 37.09375 55.488281 37.4375 L 55.550781 49.296875 C 55.550781 49.640625 55.269531 49.921875 54.921875 49.925781 Z M 46.699219 41.492188 C 46.878906 41.3125 47.171875 41.3125 47.355469 41.488281 C 47.535156 41.667969 47.535156 41.957031 47.355469 42.136719 C 47.179688 42.316406 46.886719 42.320312 46.703125 42.140625 C 46.523438 41.960938 46.523438 41.671875 46.699219 41.492188 Z M 40.269531 55.15625 L 45.585938 49.820312 C 46.292969 49.113281 46.742188 48.21875 46.894531 47.234375 L 47.507812 43.195312 L 47.539062 43.203125 C 47.777344 43.238281 48 43.078125 48.039062 42.84375 L 48.292969 41.285156 C 48.363281 40.863281 48.070312 40.460938 47.644531 40.394531 L 46.949219 40.28125 C 46.523438 40.214844 46.121094 40.5 46.054688 40.925781 L 45.800781 42.484375 C 45.761719 42.71875 45.921875 42.941406 46.160156 42.980469 L 45.542969 47.03125 C 45.4375 47.730469 45.117188 48.363281 44.617188 48.867188 L 38.027344 55.480469 C 37.632812 55.511719 37.230469 55.527344 36.828125 55.527344 C 27.835938 55.539062 20.535156 48.308594 20.519531 39.375 C 20.503906 30.441406 27.78125 23.1875 36.773438 23.171875 C 45.765625 23.15625 53.066406 30.386719 53.082031 39.320312 C 53.09375 47.082031 47.605469 53.574219 40.269531 55.15625 Z M 18.632812 50.113281 C 18.285156 50.113281 18.003906 49.835938 18 49.488281 L 17.9375 37.628906 C 17.9375 37.285156 18.21875 37.003906 18.566406 37 C 18.914062 37 19.199219 37.277344 19.199219 37.625 L 19.261719 49.480469 C 19.261719 49.828125 18.984375 50.109375 18.632812 50.113281 Z M 56.25 49.191406 L 56.195312 38.40625 C 55.917969 35.347656 54.914062 32.488281 53.347656 29.984375 C 52.566406 28.726562 51.667969 27.605469 50.6875 26.605469 L 50.238281 27.0625 C 46.894531 23.453125 42.097656 21.195312 36.769531 21.203125 C 31.445312 21.214844 26.660156 23.484375 23.328125 27.101562 L 22.789062 26.648438 C 21.777344 27.679688 20.859375 28.847656 20.0625 30.152344 C 18.523438 32.675781 17.550781 35.546875 17.304688 38.605469 L 17.363281 49.394531 C 17.328125 49.75 17.230469 50.078125 17.082031 50.375 C 16.730469 50.925781 16.355469 51.300781 15.980469 51.550781 C 15.90625 51.597656 15.828125 51.636719 15.75 51.675781 L 15.753906 51.6875 C 15.25 51.957031 14.75 52.011719 14.3125 51.96875 L 14.308594 51.957031 C 14.199219 51.949219 14.085938 51.933594 13.976562 51.914062 C 13.46875 51.800781 13.074219 51.582031 12.90625 51.472656 C 12.875 51.453125 12.84375 51.433594 12.8125 51.410156 C 12.347656 51.074219 11.921875 50.6875 11.542969 50.257812 C 11.214844 49.890625 10.996094 49.449219 10.890625 48.976562 L 10.890625 65.675781 C 10.890625 70.996094 16.683594 74.320312 21.316406 71.660156 L 57.242188 51.050781 C 56.707031 50.605469 56.332031 49.960938 56.25 49.191406 " fill-opacity="1" fill-rule="nonzero"/></g><path fill="#00bf63" d="M 63.5 47.355469 L 63.46875 41.394531 C 64.375 42.074219 64.964844 43.152344 64.972656 44.367188 C 64.976562 45.582031 64.398438 46.667969 63.5 47.355469 Z M 70.136719 31.6875 L 53.222656 21.988281 C 53.574219 22.304688 53.921875 22.632812 54.269531 22.96875 L 53.347656 23.90625 C 56.660156 27.273438 58.832031 31.417969 59.667969 35.910156 C 60.574219 36.363281 61.378906 36.988281 62.039062 37.742188 C 62.496094 38.261719 62.734375 38.9375 62.738281 39.628906 L 62.78125 47.875 L 70.136719 43.65625 C 74.769531 40.996094 74.769531 34.347656 70.136719 31.6875 " fill-opacity="1" fill-rule="nonzero"/><path fill="#2e5da1" d="M 47.332031 38.378906 C 47.332031 38.34375 47.332031 38.308594 47.332031 38.273438 C 47.328125 38.238281 47.324219 38.203125 47.320312 38.164062 C 47.316406 38.089844 47.308594 38.015625 47.300781 37.9375 C 47.296875 37.898438 47.292969 37.855469 47.289062 37.816406 C 47.285156 37.777344 47.28125 37.734375 47.277344 37.691406 C 47.265625 37.609375 47.253906 37.523438 47.238281 37.4375 C 47.234375 37.390625 47.226562 37.347656 47.21875 37.300781 C 47.214844 37.257812 47.207031 37.210938 47.199219 37.167969 C 47.179688 37.074219 47.160156 36.980469 47.140625 36.886719 C 47.105469 36.691406 47.050781 36.496094 47 36.292969 C 46.976562 36.191406 46.941406 36.089844 46.90625 35.984375 C 46.890625 35.933594 46.875 35.878906 46.859375 35.828125 C 46.851562 35.800781 46.84375 35.777344 46.832031 35.75 C 46.824219 35.722656 46.816406 35.695312 46.804688 35.667969 C 46.765625 35.5625 46.726562 35.457031 46.6875 35.351562 C 46.675781 35.324219 46.667969 35.296875 46.65625 35.269531 C 46.648438 35.242188 46.636719 35.214844 46.625 35.1875 C 46.601562 35.132812 46.578125 35.078125 46.554688 35.027344 C 46.53125 34.972656 46.507812 34.917969 46.484375 34.863281 C 46.460938 34.808594 46.4375 34.753906 46.410156 34.699219 C 46.355469 34.589844 46.300781 34.480469 46.246094 34.371094 C 46.234375 34.34375 46.21875 34.316406 46.207031 34.289062 C 46.191406 34.261719 46.175781 34.234375 46.160156 34.207031 C 46.132812 34.15625 46.101562 34.101562 46.070312 34.046875 C 46.039062 33.992188 46.007812 33.9375 45.980469 33.882812 L 45.953125 33.84375 L 45.929688 33.800781 C 45.914062 33.773438 45.898438 33.75 45.878906 33.722656 C 45.8125 33.613281 45.746094 33.507812 45.675781 33.398438 C 45.601562 33.292969 45.527344 33.1875 45.453125 33.082031 L 45.398438 33.003906 C 45.378906 32.976562 45.359375 32.953125 45.339844 32.925781 C 45.300781 32.875 45.257812 32.824219 45.21875 32.773438 C 45.179688 32.722656 45.140625 32.671875 45.097656 32.621094 C 45.058594 32.566406 45.015625 32.519531 44.972656 32.46875 C 44.929688 32.421875 44.886719 32.371094 44.84375 32.320312 L 44.78125 32.246094 L 44.746094 32.210938 L 44.714844 32.175781 C 44.625 32.078125 44.53125 31.984375 44.441406 31.890625 C 44.070312 31.519531 43.675781 31.171875 43.257812 30.863281 C 43.15625 30.785156 43.046875 30.710938 42.945312 30.636719 L 42.863281 30.582031 C 42.839844 30.566406 42.8125 30.546875 42.785156 30.53125 C 42.730469 30.496094 42.675781 30.460938 42.625 30.429688 C 42.570312 30.394531 42.515625 30.359375 42.464844 30.328125 C 42.4375 30.3125 42.410156 30.292969 42.382812 30.277344 C 42.355469 30.261719 42.328125 30.246094 42.300781 30.230469 C 42.191406 30.171875 42.082031 30.109375 41.976562 30.050781 L 41.9375 30.027344 L 41.894531 30.007812 C 41.867188 29.992188 41.839844 29.980469 41.8125 29.964844 C 41.757812 29.9375 41.703125 29.914062 41.648438 29.886719 C 41.59375 29.859375 41.539062 29.832031 41.488281 29.804688 C 41.433594 29.78125 41.378906 29.757812 41.324219 29.734375 C 41.214844 29.6875 41.105469 29.640625 41 29.59375 C 40.890625 29.554688 40.785156 29.511719 40.679688 29.472656 C 40.628906 29.453125 40.574219 29.433594 40.523438 29.414062 C 40.46875 29.398438 40.417969 29.382812 40.363281 29.367188 C 40.261719 29.332031 40.15625 29.300781 40.054688 29.269531 L 40.019531 29.257812 L 39.980469 29.246094 C 39.953125 29.238281 39.929688 29.234375 39.90625 29.226562 C 39.855469 29.214844 39.804688 29.203125 39.753906 29.1875 C 39.707031 29.175781 39.65625 29.164062 39.609375 29.152344 C 39.558594 29.136719 39.511719 29.125 39.464844 29.117188 C 39.367188 29.097656 39.273438 29.078125 39.179688 29.058594 C 39.089844 29.039062 39 29.019531 38.910156 29.007812 C 38.820312 28.996094 38.734375 28.984375 38.652344 28.972656 C 38.609375 28.964844 38.570312 28.960938 38.527344 28.953125 C 38.507812 28.949219 38.488281 28.945312 38.46875 28.945312 C 38.449219 28.945312 38.429688 28.941406 38.410156 28.9375 C 38.25 28.925781 38.101562 28.910156 37.964844 28.898438 C 37.828125 28.890625 37.703125 28.886719 37.589844 28.882812 C 37.53125 28.882812 37.476562 28.878906 37.425781 28.878906 C 37.375 28.878906 37.328125 28.878906 37.285156 28.878906 C 37.195312 28.882812 37.121094 28.882812 37.058594 28.882812 C 36.9375 28.886719 36.875 28.890625 36.875 28.890625 C 36.875 28.890625 36.9375 28.894531 37.058594 28.90625 C 37.121094 28.910156 37.195312 28.917969 37.28125 28.925781 C 37.328125 28.929688 37.375 28.929688 37.421875 28.9375 C 37.472656 28.945312 37.527344 28.949219 37.582031 28.957031 C 37.695312 28.972656 37.820312 28.984375 37.953125 29.003906 C 38.085938 29.03125 38.230469 29.054688 38.386719 29.078125 C 38.40625 29.082031 38.425781 29.085938 38.445312 29.089844 C 38.464844 29.09375 38.484375 29.097656 38.503906 29.101562 C 38.542969 29.113281 38.582031 29.121094 38.625 29.128906 C 38.707031 29.148438 38.789062 29.167969 38.875 29.183594 C 38.960938 29.203125 39.046875 29.226562 39.136719 29.25 C 39.226562 29.273438 39.316406 29.300781 39.410156 29.324219 C 39.457031 29.335938 39.5 29.351562 39.546875 29.367188 C 39.59375 29.382812 39.640625 29.398438 39.691406 29.410156 C 39.738281 29.425781 39.785156 29.441406 39.832031 29.457031 C 39.859375 29.464844 39.882812 29.472656 39.90625 29.480469 L 39.945312 29.492188 L 39.980469 29.503906 C 40.078125 29.542969 40.175781 29.578125 40.277344 29.613281 C 40.324219 29.632812 40.375 29.652344 40.425781 29.671875 C 40.476562 29.691406 40.527344 29.714844 40.578125 29.734375 C 40.679688 29.777344 40.78125 29.820312 40.882812 29.863281 C 40.984375 29.914062 41.089844 29.960938 41.191406 30.011719 C 41.242188 30.039062 41.296875 30.0625 41.347656 30.085938 C 41.398438 30.113281 41.449219 30.140625 41.503906 30.167969 C 41.554688 30.199219 41.605469 30.226562 41.660156 30.253906 C 41.683594 30.265625 41.710938 30.28125 41.738281 30.296875 L 41.777344 30.316406 L 41.816406 30.339844 C 42.230469 30.574219 42.640625 30.851562 43.039062 31.148438 C 43.4375 31.453125 43.816406 31.789062 44.175781 32.148438 C 44.261719 32.242188 44.351562 32.332031 44.4375 32.425781 L 44.472656 32.457031 L 44.503906 32.492188 L 44.566406 32.566406 C 44.605469 32.613281 44.648438 32.660156 44.691406 32.707031 C 44.730469 32.757812 44.773438 32.800781 44.8125 32.851562 C 44.851562 32.902344 44.890625 32.949219 44.929688 33 C 44.96875 33.046875 45.007812 33.097656 45.046875 33.144531 C 45.066406 33.171875 45.085938 33.195312 45.105469 33.21875 L 45.160156 33.296875 C 45.234375 33.398438 45.308594 33.496094 45.378906 33.597656 C 45.449219 33.699219 45.515625 33.804688 45.582031 33.90625 C 45.601562 33.929688 45.617188 33.957031 45.632812 33.980469 L 45.660156 34.019531 L 45.683594 34.058594 C 45.714844 34.113281 45.742188 34.164062 45.773438 34.214844 C 45.804688 34.265625 45.835938 34.320312 45.867188 34.371094 C 45.882812 34.394531 45.898438 34.421875 45.914062 34.449219 C 45.925781 34.472656 45.941406 34.5 45.957031 34.527344 C 46.011719 34.632812 46.066406 34.734375 46.121094 34.839844 C 46.152344 34.890625 46.171875 34.941406 46.199219 34.996094 C 46.222656 35.046875 46.25 35.097656 46.273438 35.152344 C 46.296875 35.203125 46.324219 35.253906 46.347656 35.304688 C 46.359375 35.332031 46.371094 35.355469 46.382812 35.382812 C 46.390625 35.410156 46.402344 35.433594 46.414062 35.460938 C 46.457031 35.5625 46.5 35.664062 46.542969 35.765625 C 46.554688 35.792969 46.5625 35.816406 46.574219 35.84375 C 46.582031 35.867188 46.589844 35.894531 46.601562 35.917969 C 46.621094 35.96875 46.636719 36.019531 46.65625 36.070312 C 46.691406 36.167969 46.730469 36.265625 46.761719 36.363281 C 46.820312 36.5625 46.886719 36.75 46.933594 36.933594 C 46.957031 37.027344 46.980469 37.117188 47.003906 37.207031 C 47.015625 37.25 47.023438 37.296875 47.035156 37.339844 C 47.042969 37.382812 47.054688 37.425781 47.0625 37.46875 C 47.082031 37.554688 47.101562 37.636719 47.117188 37.71875 C 47.128906 37.757812 47.132812 37.796875 47.140625 37.839844 C 47.144531 37.878906 47.152344 37.917969 47.160156 37.957031 C 47.171875 38.03125 47.183594 38.105469 47.195312 38.179688 C 47.203125 38.214844 47.210938 38.25 47.214844 38.285156 C 47.21875 38.320312 47.222656 38.351562 47.226562 38.386719 C 47.242188 38.519531 47.257812 38.644531 47.273438 38.753906 C 47.292969 38.980469 47.304688 39.15625 47.316406 39.277344 C 47.320312 39.335938 47.320312 39.382812 47.324219 39.414062 C 47.324219 39.445312 47.324219 39.460938 47.324219 39.460938 C 47.324219 39.460938 47.328125 39.445312 47.328125 39.414062 C 47.332031 39.382812 47.335938 39.335938 47.335938 39.277344 C 47.335938 39.214844 47.339844 39.140625 47.339844 39.054688 C 47.34375 38.964844 47.347656 38.867188 47.347656 38.753906 C 47.34375 38.640625 47.339844 38.515625 47.332031 38.378906 " fill-opacity="1" fill-rule="nonzero"/><path fill="#2e5da1" d="M 46.484375 29.46875 C 46.238281 29.230469 45.984375 29.003906 45.722656 28.785156 C 45.589844 28.675781 45.457031 28.570312 45.324219 28.464844 C 45.1875 28.363281 45.054688 28.261719 44.914062 28.167969 C 44.777344 28.066406 44.636719 27.976562 44.5 27.882812 C 44.359375 27.792969 44.21875 27.703125 44.078125 27.617188 C 43.9375 27.53125 43.792969 27.453125 43.652344 27.371094 C 43.511719 27.292969 43.367188 27.214844 43.222656 27.144531 C 42.652344 26.851562 42.078125 26.617188 41.523438 26.425781 C 41.246094 26.332031 40.972656 26.246094 40.707031 26.175781 C 40.4375 26.101562 40.179688 26.042969 39.929688 25.988281 C 39.804688 25.964844 39.679688 25.941406 39.5625 25.917969 C 39.441406 25.898438 39.320312 25.878906 39.207031 25.859375 C 39.089844 25.84375 38.980469 25.832031 38.871094 25.816406 C 38.761719 25.804688 38.652344 25.792969 38.550781 25.78125 C 38.136719 25.742188 37.777344 25.726562 37.480469 25.722656 C 37.332031 25.722656 37.199219 25.71875 37.082031 25.722656 C 36.96875 25.726562 36.871094 25.730469 36.792969 25.730469 C 36.632812 25.742188 36.546875 25.746094 36.546875 25.746094 C 36.546875 25.746094 36.632812 25.75 36.792969 25.753906 C 36.871094 25.757812 36.96875 25.761719 37.082031 25.769531 C 37.140625 25.769531 37.203125 25.777344 37.265625 25.78125 C 37.332031 25.785156 37.402344 25.792969 37.476562 25.796875 C 37.769531 25.824219 38.128906 25.859375 38.53125 25.921875 C 38.632812 25.9375 38.738281 25.957031 38.847656 25.972656 C 38.953125 25.996094 39.0625 26.015625 39.175781 26.039062 C 39.289062 26.0625 39.402344 26.085938 39.519531 26.113281 C 39.636719 26.140625 39.757812 26.167969 39.878906 26.199219 C 40.125 26.261719 40.375 26.332031 40.636719 26.414062 C 40.894531 26.492188 41.15625 26.585938 41.425781 26.6875 C 41.496094 26.714844 41.5625 26.738281 41.628906 26.765625 C 41.664062 26.78125 41.699219 26.792969 41.730469 26.808594 C 41.765625 26.820312 41.800781 26.835938 41.832031 26.847656 C 41.902344 26.878906 41.96875 26.90625 42.039062 26.9375 C 42.105469 26.964844 42.175781 26.996094 42.242188 27.027344 C 42.3125 27.058594 42.382812 27.089844 42.449219 27.125 C 42.519531 27.15625 42.585938 27.1875 42.65625 27.222656 C 42.792969 27.292969 42.933594 27.359375 43.070312 27.4375 C 43.207031 27.507812 43.34375 27.589844 43.484375 27.664062 C 43.621094 27.746094 43.757812 27.828125 43.894531 27.914062 C 44.167969 28.082031 44.4375 28.265625 44.703125 28.457031 C 44.835938 28.554688 44.964844 28.65625 45.097656 28.753906 C 45.226562 28.859375 45.355469 28.960938 45.484375 29.066406 C 45.738281 29.28125 45.984375 29.503906 46.222656 29.734375 C 46.703125 30.195312 47.144531 30.695312 47.546875 31.210938 C 47.597656 31.273438 47.644531 31.34375 47.695312 31.40625 C 47.71875 31.4375 47.746094 31.472656 47.769531 31.503906 C 47.792969 31.539062 47.816406 31.570312 47.839844 31.605469 C 47.886719 31.667969 47.933594 31.734375 47.980469 31.800781 C 48.027344 31.867188 48.070312 31.933594 48.117188 32 C 48.164062 32.066406 48.203125 32.132812 48.25 32.199219 C 48.292969 32.265625 48.335938 32.335938 48.375 32.402344 C 48.417969 32.46875 48.460938 32.535156 48.5 32.605469 C 48.539062 32.671875 48.582031 32.738281 48.617188 32.808594 C 48.773438 33.078125 48.917969 33.347656 49.050781 33.617188 C 49.121094 33.75 49.179688 33.886719 49.242188 34.019531 C 49.273438 34.085938 49.300781 34.152344 49.332031 34.21875 C 49.359375 34.285156 49.390625 34.351562 49.417969 34.417969 C 49.441406 34.484375 49.46875 34.550781 49.496094 34.617188 C 49.523438 34.683594 49.546875 34.746094 49.570312 34.8125 C 49.625 34.941406 49.667969 35.070312 49.710938 35.199219 C 49.738281 35.261719 49.757812 35.324219 49.777344 35.386719 C 49.796875 35.453125 49.820312 35.511719 49.839844 35.574219 C 49.875 35.699219 49.914062 35.820312 49.949219 35.941406 C 50.019531 36.183594 50.078125 36.414062 50.128906 36.636719 C 50.152344 36.75 50.179688 36.859375 50.199219 36.964844 C 50.222656 37.070312 50.246094 37.171875 50.261719 37.273438 C 50.277344 37.375 50.296875 37.472656 50.3125 37.566406 C 50.328125 37.660156 50.339844 37.75 50.355469 37.835938 C 50.367188 37.925781 50.378906 38.007812 50.390625 38.089844 C 50.394531 38.128906 50.398438 38.167969 50.402344 38.207031 C 50.410156 38.246094 50.414062 38.28125 50.417969 38.320312 C 50.425781 38.394531 50.429688 38.460938 50.4375 38.527344 C 50.445312 38.59375 50.449219 38.652344 50.453125 38.710938 C 50.460938 38.765625 50.464844 38.820312 50.46875 38.867188 C 50.472656 38.914062 50.472656 38.960938 50.476562 39 C 50.488281 39.15625 50.492188 39.242188 50.492188 39.242188 C 50.492188 39.242188 50.496094 39.15625 50.5 39 C 50.5 38.960938 50.5 38.914062 50.5 38.867188 C 50.5 38.820312 50.5 38.765625 50.5 38.707031 C 50.5 38.652344 50.5 38.589844 50.496094 38.523438 C 50.496094 38.457031 50.492188 38.386719 50.488281 38.3125 C 50.488281 38.277344 50.488281 38.238281 50.484375 38.199219 C 50.484375 38.160156 50.480469 38.121094 50.480469 38.082031 C 50.472656 38 50.46875 37.914062 50.460938 37.824219 C 50.453125 37.738281 50.445312 37.644531 50.4375 37.550781 C 50.429688 37.453125 50.414062 37.355469 50.402344 37.25 C 50.390625 37.148438 50.375 37.042969 50.359375 36.9375 C 50.34375 36.828125 50.324219 36.71875 50.304688 36.601562 C 50.265625 36.375 50.214844 36.136719 50.15625 35.890625 C 50.128906 35.765625 50.09375 35.640625 50.0625 35.511719 C 50.042969 35.445312 50.027344 35.382812 50.007812 35.316406 C 49.988281 35.253906 49.972656 35.1875 49.949219 35.121094 C 49.910156 34.992188 49.867188 34.855469 49.820312 34.722656 C 49.796875 34.65625 49.777344 34.589844 49.75 34.519531 C 49.726562 34.453125 49.703125 34.386719 49.675781 34.316406 C 49.652344 34.25 49.625 34.179688 49.597656 34.113281 C 49.570312 34.042969 49.539062 33.972656 49.511719 33.902344 C 49.453125 33.765625 49.394531 33.625 49.328125 33.488281 C 49.203125 33.207031 49.0625 32.925781 48.910156 32.644531 C 48.601562 32.085938 48.242188 31.527344 47.835938 30.992188 C 47.429688 30.457031 46.976562 29.945312 46.484375 29.46875 " fill-opacity="1" fill-rule="nonzero"/></svg>